<svg xmlns="http://www.w3.org/2000/svg" xmlns:xlink="http://www.w3.org/1999/xlink" width="1080" zoomAndPan="magnify" viewBox="0 0 810 809.999993" height="1080" preserveAspectRatio="xMidYMid meet" version="1.0"><defs><clipPath id="7c80040f68"><path d="M 297 165.566406 L 588 165.566406 L 588 410 L 297 410 Z M 297 165.566406 " clip-rule="nonzero"/></clipPath><clipPath id="ac27482c97"><path d="M 281.332031 176 L 579 176 L 579 702.566406 L 281.332031 702.566406 Z M 281.332031 176 " clip-rule="nonzero"/></clipPath></defs><g clip-path="url(#7c80040f68)"><path fill="#f5f1e8" d="M 309.863281 347.035156 C 324.652344 308.601562 352.964844 236.898438 369.28125 201.261719 C 385.589844 165.628906 389.910156 166.058594 409.128906 166.058594 C 428.34375 166.058594 462.460938 165.628906 480.164062 166.707031 C 497.871094 167.785156 499.167969 170.378906 515.140625 204.707031 C 531.121094 239.039062 561.777344 305.109375 576.675781 339.546875 C 591.574219 373.988281 590.714844 376.792969 577.222656 382.515625 C 563.722656 388.238281 537.597656 396.875 497.328125 402.488281 C 457.0625 408.101562 402.652344 410.691406 366.160156 409.074219 C 329.671875 407.453125 311.101562 401.625 302.453125 396.128906 C 293.804688 390.628906 295.074219 385.46875 309.863281 347.035156 Z M 309.863281 347.035156 " fill-opacity="1" fill-rule="evenodd"/></g><g clip-path="url(#ac27482c97)"><path fill="#000000" d="M 409.792969 658.054688 C 407.375 658.546875 403.878906 658.816406 400.289062 659.09375 C 398.042969 659.265625 395.753906 659.441406 393.871094 659.652344 C 391.460938 659.925781 389.515625 660.261719 387.941406 660.671875 C 386.5 661.050781 385.378906 661.480469 384.492188 661.976562 C 383.582031 662.480469 382.765625 663.171875 381.96875 663.847656 C 381.058594 664.625 380.15625 665.386719 378.992188 666.089844 C 377.960938 666.714844 376.820312 667.214844 375.714844 667.699219 C 374.671875 668.15625 373.667969 668.597656 373.277344 668.925781 C 373.195312 668.996094 373.101562 669.132812 373.011719 669.300781 C 373.402344 669.332031 373.816406 669.378906 374.253906 669.4375 C 375.128906 669.5625 376.4375 669.796875 378.046875 670.082031 C 381.582031 670.71875 386.738281 671.640625 393.902344 672.386719 C 399.039062 672.921875 405.167969 673.355469 411.773438 673.65625 C 418.039062 673.941406 424.917969 674.101562 431.96875 674.101562 C 439.167969 674.101562 446.222656 673.933594 452.574219 673.613281 C 458.949219 673.296875 464.726562 672.832031 469.378906 672.25 L 469.390625 672.25 C 476.996094 671.289062 481.78125 669.953125 484.96875 669.039062 C 484.792969 668.90625 484.605469 668.78125 484.417969 668.664062 C 483.777344 668.269531 483.066406 667.957031 482.460938 667.71875 C 482.308594 667.65625 481.910156 667.519531 481.554688 667.390625 C 480.222656 666.914062 479.269531 666.574219 478.050781 665.457031 C 477.597656 665.042969 477.171875 664.535156 476.699219 663.976562 C 476.257812 663.449219 475.746094 662.839844 475.167969 662.421875 C 474.714844 662.09375 474.144531 661.8125 473.425781 661.554688 C 472.578125 661.25 471.449219 660.957031 470.019531 660.648438 C 468.425781 660.300781 466.714844 659.980469 465.03125 659.714844 C 463.300781 659.441406 461.402344 659.1875 459.488281 658.980469 C 457.914062 658.808594 456.863281 658.710938 455.878906 658.621094 C 453.386719 658.390625 451.253906 658.199219 449.835938 657.847656 C 446.492188 657.019531 445.921875 655.613281 445.3125 654.101562 L 445.3125 654.105469 C 445.308594 654.097656 445.308594 654.09375 445.269531 654.015625 L 445.269531 654 C 445.242188 653.9375 445.082031 653.730469 444.925781 653.523438 L 444.917969 653.527344 C 444.570312 653.070312 444.21875 652.613281 443.902344 652.019531 C 443.449219 651.1875 443.207031 650.46875 443.105469 648.90625 C 443.046875 648.039062 443.027344 646.539062 443.019531 643.875 C 443.007812 641.386719 443.007812 637.828125 443 634.3125 L 442.996094 625.007812 L 443 625.007812 L 443 618.574219 L 442.988281 618.574219 C 442.988281 617.535156 442.988281 615.96875 442.957031 615.03125 C 442.917969 613.757812 442.839844 612.453125 442.683594 611.496094 C 442.507812 610.382812 442.152344 609.671875 441.671875 608.71875 C 441.386719 608.15625 441.085938 607.546875 440.914062 607.171875 C 440.328125 605.902344 439.644531 604.1875 439.039062 602.28125 C 438.539062 600.730469 438.109375 599.097656 437.84375 597.539062 C 437.527344 595.65625 437.429688 593.820312 437.632812 591.84375 C 437.824219 589.910156 438.3125 587.894531 439.160156 585.621094 C 439.78125 583.957031 440.574219 582.214844 441.363281 580.484375 C 442.457031 578.089844 443.539062 575.707031 443.894531 574.085938 C 444.199219 572.671875 443.648438 571.804688 443.1875 571.082031 C 442.988281 570.769531 442.941406 570.707031 442.867188 570.585938 C 442.171875 569.453125 441.660156 568.429688 441.332031 565.390625 C 441.078125 563.078125 440.894531 559.148438 440.761719 551.9375 C 440.628906 544.921875 440.535156 534.667969 440.46875 523.21875 C 440.398438 511.820312 440.359375 499.226562 440.328125 487.484375 C 440.300781 475.957031 440.289062 465.253906 440.28125 456.128906 C 440.28125 446.671875 440.292969 438.902344 440.320312 433.660156 C 440.34375 428.296875 440.378906 425.480469 440.515625 423.875 C 440.714844 421.476562 441.101562 420.652344 441.804688 419.433594 C 441.824219 419.398438 442.011719 419.082031 442.210938 418.738281 C 442.9375 417.515625 443.960938 415.789062 444.140625 414.375 C 444.34375 412.863281 443.726562 410.839844 443.148438 408.945312 C 442.792969 407.761719 443.378906 409.75 442.902344 408.164062 C 442.507812 406.824219 442.160156 405.507812 441.917969 404.007812 C 441.679688 402.503906 441.597656 400.945312 441.757812 399.21875 C 441.914062 397.503906 442.316406 395.636719 442.871094 393.988281 C 442.898438 393.910156 442.921875 393.832031 442.949219 393.753906 L 442.734375 393.796875 C 440.539062 394.21875 437.980469 394.425781 434.128906 394.519531 C 430.507812 394.609375 425.628906 394.589844 418.632812 394.550781 L 417.324219 394.542969 C 417.609375 395.335938 417.875 396.074219 418.074219 396.730469 C 418.632812 398.511719 418.851562 399.921875 418.78125 401.316406 C 418.710938 402.796875 418.355469 404.039062 417.738281 405.464844 C 417.617188 405.746094 417.273438 406.457031 416.917969 407.207031 C 416.179688 408.753906 415.308594 410.566406 415.101562 412.121094 C 414.992188 412.933594 415.050781 413.800781 415.21875 414.644531 C 415.433594 415.722656 415.820312 416.738281 416.25 417.574219 C 416.410156 417.894531 416.515625 418.078125 416.613281 418.261719 C 417.71875 420.265625 418.851562 422.332031 419.308594 429.167969 C 419.664062 434.578125 419.578125 443.507812 419.441406 458.265625 C 419.402344 462.507812 419.359375 467.230469 419.328125 472.390625 C 419.261719 481.027344 419.210938 491.125 419.15625 501.3125 C 419.074219 518.707031 418.984375 536.367188 418.828125 547.460938 C 418.703125 556.394531 418.535156 561.195312 418.277344 563.976562 C 417.945312 567.53125 417.421875 568.554688 416.695312 569.722656 C 416.625 569.832031 416.507812 570.011719 416.386719 570.203125 C 415.839844 571.042969 415.175781 572.074219 415.445312 573.757812 C 415.769531 575.808594 417.15625 579.109375 418.417969 582.117188 C 418.859375 583.164062 419.289062 584.171875 419.773438 585.425781 C 420.628906 587.617188 421.191406 589.445312 421.40625 591.332031 C 421.625 593.339844 421.4375 595.261719 420.757812 597.5 C 420.335938 598.863281 419.851562 600.0625 419.3125 601.390625 C 418.238281 604.039062 416.9375 607.25 416.351562 611.125 C 415.628906 615.953125 415.90625 622.136719 416.164062 627.976562 C 416.230469 629.265625 416.28125 630.539062 416.339844 631.992188 C 416.46875 635.546875 416.503906 638.886719 416.488281 641.800781 C 416.484375 644.734375 416.429688 647.136719 416.390625 648.933594 C 416.347656 651.296875 416.308594 652.863281 415.433594 654.484375 C 414.382812 656.429688 412.769531 657.445312 409.792969 658.054688 Z M 399.726562 651.554688 C 403.140625 651.289062 406.457031 651.035156 408.28125 650.664062 C 408.789062 650.558594 408.632812 651.183594 408.78125 650.90625 C 408.8125 650.855469 408.828125 650.027344 408.851562 648.785156 C 408.890625 646.976562 408.941406 644.558594 408.949219 641.800781 C 408.960938 639.023438 408.929688 635.796875 408.800781 632.257812 C 408.753906 631.113281 408.691406 629.714844 408.632812 628.300781 C 408.347656 622.066406 408.050781 615.46875 408.871094 610 C 409.589844 605.253906 411.082031 601.582031 412.304688 598.554688 C 412.828125 597.265625 413.300781 596.101562 413.542969 595.3125 C 413.898438 594.132812 414.007812 593.152344 413.890625 592.160156 C 413.769531 591.046875 413.367188 589.78125 412.738281 588.175781 C 412.453125 587.4375 411.953125 586.261719 411.441406 585.042969 C 410.03125 581.679688 408.484375 577.988281 407.996094 574.941406 C 407.273438 570.394531 408.792969 568.035156 410.03125 566.125 C 410.097656 566.019531 410.167969 565.910156 410.277344 565.730469 C 410.457031 565.4375 410.601562 565.125 410.769531 563.296875 C 411.007812 560.699219 411.171875 556.074219 411.289062 547.375 C 411.449219 536.246094 411.535156 518.632812 411.617188 501.285156 C 411.667969 491.09375 411.722656 480.996094 411.785156 472.359375 C 411.824219 467.058594 411.863281 462.394531 411.902344 458.207031 C 412.039062 443.738281 412.117188 434.984375 411.765625 429.640625 C 411.429688 424.507812 410.699219 423.183594 409.992188 421.898438 C 409.804688 421.5625 409.621094 421.230469 409.507812 421.003906 C 408.808594 419.632812 408.164062 417.9375 407.804688 416.09375 C 407.492188 414.535156 407.386719 412.84375 407.621094 411.117188 C 407.984375 408.410156 409.136719 406.003906 410.113281 403.957031 C 410.304688 403.566406 410.476562 403.195312 410.789062 402.476562 C 411.066406 401.835938 411.230469 401.355469 411.25 400.964844 C 411.269531 400.488281 411.152344 399.867188 410.867188 398.949219 C 410.59375 398.070312 410.210938 397.046875 409.804688 395.949219 C 409.621094 395.476562 409.441406 394.988281 409.261719 394.492188 C 404.234375 394.457031 398.675781 394.410156 392.917969 394.339844 C 383.167969 394.226562 372.8125 394.054688 363.347656 393.792969 C 353.714844 393.519531 345.015625 393.160156 337.242188 392.695312 C 329.308594 392.21875 322.203125 391.636719 315.894531 390.929688 C 310.375 390.3125 305.445312 389.597656 301.214844 388.882812 C 295.671875 387.945312 291.335938 387.007812 288.441406 386.285156 C 284.238281 385.234375 281.875 384.382812 281.527344 379.824219 C 281.328125 377.195312 282.507812 373.292969 285.21875 366.042969 C 288.484375 357.308594 294.15625 343.097656 301.300781 325.183594 C 304.15625 318.027344 307.332031 310.078125 313.8125 293.695312 C 320.53125 276.738281 326.691406 261.050781 332.410156 246.496094 C 339.285156 228.988281 345.542969 213.054688 349.933594 202.085938 C 354.109375 191.632812 356.363281 186.304688 360.058594 183.128906 C 364.054688 179.6875 368.503906 179.429688 377.0625 179.109375 C 384.710938 178.824219 396.164062 178.472656 408.308594 178.136719 C 420.21875 177.808594 432.820312 177.496094 443.097656 177.289062 C 464.320312 176.855469 474.753906 176.855469 480.410156 176.855469 C 484.464844 176.855469 486.808594 176.855469 490.136719 180.835938 C 492.566406 183.738281 495.378906 189.1875 500.449219 199.996094 C 508.519531 217.203125 522.402344 248.074219 535.261719 276.664062 C 535.835938 277.953125 536.496094 279.417969 543.863281 295.773438 C 547.488281 303.820312 550.871094 311.324219 554 318.246094 C 563.617188 339.566406 570.75 355.367188 574.714844 364.667969 C 577.566406 371.347656 578.828125 374.910156 578.535156 377.503906 C 578.050781 381.851562 575.558594 382.574219 571.007812 383.605469 C 568.03125 384.28125 563.78125 385.179688 558.605469 386.09375 C 553.324219 387.023438 546.914062 388.011719 539.523438 388.878906 C 532.191406 389.742188 523.949219 390.476562 515.660156 391.101562 C 507.554688 391.710938 499.160156 392.226562 491.472656 392.652344 C 484.695312 393.027344 478.402344 393.332031 472.855469 393.570312 C 466.558594 393.839844 461.363281 394.011719 457.640625 394.09375 C 456.933594 394.109375 456.292969 394.125 455.703125 394.136719 L 455.683594 394.136719 C 452.011719 394.207031 451.058594 394.226562 451.027344 394.265625 C 450.691406 394.683594 450.332031 395.453125 450.023438 396.382812 C 449.640625 397.519531 449.367188 398.773438 449.265625 399.898438 C 449.167969 400.953125 449.21875 401.917969 449.367188 402.855469 C 449.519531 403.804688 449.808594 404.863281 450.144531 406.007812 C 450.773438 408.101562 450.160156 406.089844 450.367188 406.757812 C 451.167969 409.402344 452.023438 412.226562 451.621094 415.320312 C 451.234375 418.339844 449.765625 420.820312 448.714844 422.582031 C 448.648438 422.699219 448.578125 422.824219 448.363281 423.1875 C 448.210938 423.457031 448.125 423.664062 448.054688 424.496094 C 447.917969 426.128906 447.878906 428.75 447.859375 433.691406 C 447.832031 438.933594 447.820312 446.6875 447.820312 456.128906 C 447.828125 465.253906 447.839844 475.957031 447.867188 487.484375 C 447.890625 499.199219 447.9375 511.773438 448.007812 523.191406 C 448.074219 534.558594 448.171875 544.773438 448.300781 551.820312 C 448.429688 558.675781 448.597656 562.40625 448.835938 564.589844 C 449 566.050781 449.136719 566.363281 449.308594 566.652344 C 449.5625 567.0625 449.53125 567.015625 449.542969 567.03125 C 450.769531 568.957031 452.238281 571.261719 451.285156 575.683594 C 450.78125 578.011719 449.503906 580.804688 448.222656 583.617188 C 447.484375 585.234375 446.746094 586.855469 446.226562 588.25 C 445.613281 589.886719 445.269531 591.289062 445.140625 592.582031 C 445.007812 593.828125 445.082031 595.03125 445.292969 596.296875 C 445.507812 597.550781 445.839844 598.820312 446.222656 600.003906 C 446.695312 601.488281 447.261719 602.90625 447.773438 604.011719 C 448.097656 604.726562 448.269531 605.050781 448.417969 605.347656 C 449.195312 606.902344 449.777344 608.0625 450.132812 610.316406 C 450.347656 611.621094 450.445312 613.25 450.496094 614.792969 C 450.554688 616.671875 450.554688 617.8125 450.554688 618.574219 L 450.542969 618.574219 L 450.542969 625.007812 L 450.554688 625.007812 C 450.554688 636.304688 450.527344 615.382812 450.542969 634.3125 C 450.546875 637.828125 450.546875 641.386719 450.5625 643.875 C 450.566406 646.183594 450.578125 647.511719 450.644531 648.402344 C 450.652344 648.550781 450.5625 648.429688 450.542969 648.410156 L 450.535156 648.410156 C 450.535156 648.414062 450.542969 648.425781 450.554688 648.445312 C 450.59375 648.515625 450.753906 648.730469 450.917969 648.945312 L 450.917969 648.960938 C 451.304688 649.46875 451.6875 649.972656 452.003906 650.59375 C 453.015625 650.785156 454.660156 650.9375 456.558594 651.109375 C 457.886719 651.234375 459.316406 651.363281 460.285156 651.46875 C 462.160156 651.675781 464.183594 651.949219 466.183594 652.265625 C 468.269531 652.59375 470.140625 652.9375 471.617188 653.257812 C 473.246094 653.609375 474.664062 653.992188 475.972656 654.460938 C 477.410156 654.976562 478.59375 655.570312 479.597656 656.300781 C 480.855469 657.210938 481.710938 658.234375 482.460938 659.128906 C 482.707031 659.421875 482.933594 659.6875 483.136719 659.871094 C 483.226562 659.953125 483.589844 660.082031 484.101562 660.265625 C 484.355469 660.355469 484.625 660.453125 485.214844 660.683594 C 486.109375 661.035156 487.210938 661.53125 488.375 662.25 C 489.601562 663.003906 490.832031 663.980469 491.867188 665.257812 C 492.5625 666.105469 493.144531 667.066406 493.609375 668.050781 C 494.417969 668.273438 495.195312 668.617188 496.046875 669.101562 C 497.386719 669.863281 498.972656 671.015625 500.449219 672.496094 C 501.65625 673.699219 502.832031 675.160156 503.824219 676.867188 C 505.09375 679.050781 506.019531 681.648438 506.035156 684.316406 C 506.039062 686.753906 505.300781 689.167969 503.4375 691.300781 C 501.660156 693.328125 498.914062 694.96875 495.171875 696.304688 C 491.839844 697.492188 487.578125 698.484375 482.371094 699.335938 C 477.203125 700.1875 471.140625 700.898438 464.453125 701.441406 C 457.996094 701.964844 450.769531 702.339844 443.027344 702.53125 C 435.292969 702.726562 427.164062 702.722656 419.242188 702.53125 C 411.3125 702.34375 403.695312 701.972656 396.980469 701.433594 C 390.863281 700.941406 385.332031 700.296875 380.5 699.609375 C 374.503906 698.757812 369.59375 697.824219 366.042969 697.015625 C 362.609375 696.238281 360.316406 695.535156 358.632812 694.621094 C 356.332031 693.367188 355.179688 691.875 354.449219 689.742188 C 353.859375 688.035156 353.625 685.878906 353.773438 683.683594 C 353.910156 681.65625 354.375 679.535156 355.191406 677.644531 C 355.945312 675.914062 356.980469 674.386719 358.113281 673.082031 C 359.519531 671.464844 361.042969 670.210938 362.335938 669.347656 L 362.34375 669.355469 C 363.386719 668.664062 364.132812 668.273438 364.777344 667.9375 C 365.234375 667.703125 365.445312 667.695312 365.511719 667.609375 C 365.53125 667.585938 365.609375 667.371094 365.726562 667.089844 C 366.242188 665.871094 366.828125 664.507812 368.425781 663.160156 C 369.683594 662.105469 371.160156 661.457031 372.695312 660.78125 C 373.53125 660.414062 374.390625 660.039062 375.089844 659.617188 C 375.777344 659.203125 376.425781 658.648438 377.09375 658.082031 C 378.148438 657.1875 379.230469 656.269531 380.824219 655.382812 C 382.253906 654.585938 383.960938 653.917969 386.050781 653.371094 C 388.015625 652.859375 390.3125 652.449219 393.046875 652.144531 C 395.183594 651.902344 397.476562 651.726562 399.726562 651.554688 Z M 367.785156 674.902344 C 367.363281 675.125 366.921875 675.371094 366.535156 675.628906 L 366.535156 675.644531 C 365.671875 676.222656 364.675781 677.027344 363.820312 678.019531 C 363.160156 678.773438 362.5625 679.648438 362.144531 680.632812 C 361.671875 681.730469 361.390625 682.980469 361.3125 684.1875 C 361.230469 685.398438 361.332031 686.5 361.597656 687.289062 C 361.703125 687.585938 361.878906 687.800781 362.238281 687.996094 C 363.226562 688.535156 364.941406 689.027344 367.695312 689.65625 C 371.023438 690.410156 375.707031 691.296875 381.5625 692.132812 C 386.1875 692.789062 391.550781 693.410156 397.566406 693.894531 C 404.402344 694.445312 411.871094 694.8125 419.417969 694.992188 C 427.222656 695.183594 435.234375 695.183594 442.847656 694.992188 C 450.191406 694.8125 457.285156 694.4375 463.859375 693.902344 C 470.441406 693.367188 476.300781 692.6875 481.160156 691.886719 C 485.902344 691.109375 489.730469 690.222656 492.65625 689.179688 C 495.175781 688.285156 496.875 687.347656 497.753906 686.335938 C 498.285156 685.730469 498.492188 685.03125 498.492188 684.316406 C 498.488281 683.148438 497.980469 681.84375 497.289062 680.652344 C 496.679688 679.601562 495.910156 678.65625 495.101562 677.847656 C 494.78125 677.53125 494.472656 677.238281 494.160156 676.976562 C 493.804688 677.554688 493.320312 678.089844 492.675781 678.609375 C 491.652344 679.433594 490.261719 680.074219 488.164062 680.828125 C 486.316406 681.492188 483.863281 682.285156 480.875 683.046875 C 477.902344 683.808594 474.210938 684.59375 469.707031 685.292969 C 465.109375 686.007812 459.835938 686.601562 454.007812 687.011719 C 448.664062 687.386719 442.703125 687.617188 436.195312 687.652344 C 429.144531 687.695312 421.621094 687.503906 414.457031 687.050781 C 407.886719 686.636719 401.519531 685.996094 395.960938 685.101562 C 391.019531 684.308594 386.789062 683.332031 383.273438 682.332031 C 378.277344 680.917969 374.617188 679.445312 372.34375 678.390625 C 370.640625 677.601562 369.480469 676.902344 368.839844 676.296875 C 368.367188 675.859375 368.019531 675.394531 367.785156 674.902344 Z M 450.542969 648.410156 C 450.535156 648.40625 450.535156 648.40625 450.535156 648.410156 Z M 442.996094 625.007812 C 442.988281 618.882812 442.988281 622.773438 442.988281 625.007812 Z M 442.988281 625.007812 C 442.988281 626.292969 442.988281 627.027344 442.988281 625.007812 Z M 449.972656 386.851562 C 451.339844 386.679688 453.105469 386.644531 455.554688 386.597656 C 456.144531 386.585938 456.792969 386.570312 457.492188 386.554688 C 461.027344 386.476562 466.144531 386.304688 472.558594 386.03125 C 477.792969 385.808594 483.996094 385.503906 491.058594 385.113281 C 498.429688 384.703125 506.679688 384.195312 515.097656 383.5625 C 523.316406 382.941406 531.457031 382.21875 538.660156 381.371094 C 545.8125 380.53125 552.09375 379.5625 557.304688 378.644531 C 562.609375 377.707031 566.636719 376.859375 569.351562 376.242188 C 570.496094 375.984375 570.9375 377.484375 571.027344 376.679688 C 571.132812 375.734375 570.082031 373.050781 567.769531 367.625 C 563.9375 358.636719 556.773438 342.765625 547.109375 321.351562 C 543.984375 314.429688 540.597656 306.925781 536.976562 298.878906 C 535.128906 294.773438 533.691406 291.570312 528.375 279.742188 C 515.472656 251.054688 501.546875 220.082031 493.617188 203.191406 C 488.855469 193.046875 486.296875 188.019531 484.339844 185.683594 C 483.292969 184.425781 482.234375 184.425781 480.410156 184.425781 C 474.292969 184.425781 463.011719 184.425781 443.242188 184.828125 C 433.117188 185.03125 420.53125 185.34375 408.515625 185.675781 C 396.511719 186.007812 385.085938 186.359375 377.332031 186.648438 C 370.558594 186.902344 367.066406 187.078125 364.992188 188.863281 C 362.609375 190.917969 360.652344 195.609375 356.933594 204.894531 C 352.878906 215.039062 346.480469 231.335938 339.445312 249.246094 C 333.066406 265.5 326.179688 283.027344 320.855469 296.476562 C 318.335938 302.832031 313.0625 316.050781 308.308594 327.960938 C 301.195312 345.789062 295.554688 359.9375 292.285156 368.675781 C 289.984375 374.828125 288.964844 377.929688 289.066406 379.265625 C 289.113281 379.855469 289.46875 378.753906 290.273438 378.953125 C 293.046875 379.644531 297.1875 380.539062 302.460938 381.429688 C 306.558594 382.125 311.347656 382.816406 316.722656 383.417969 C 322.941406 384.117188 329.925781 384.691406 337.683594 385.15625 C 345.605469 385.628906 354.214844 385.992188 363.5625 386.253906 C 373.078125 386.519531 383.371094 386.691406 393 386.804688 C 397.984375 386.859375 402.777344 386.902344 407.207031 386.9375 C 406.980469 384.824219 407.257812 382.816406 408.691406 380.992188 C 410.269531 378.976562 413.015625 377.691406 417.753906 377.589844 C 421.308594 377.515625 426.289062 378.070312 431.097656 378.898438 C 436.382812 379.808594 441.597656 381.070312 444.609375 382.210938 C 446.675781 382.996094 448.035156 383.867188 448.835938 384.777344 C 449.425781 385.441406 449.796875 386.136719 449.972656 386.851562 Z M 414.855469 386.988281 L 418.664062 387.011719 C 425.136719 387.046875 429.773438 387.066406 433.285156 386.996094 C 432.15625 386.765625 431 386.550781 429.828125 386.347656 C 425.375 385.582031 420.898438 385.066406 417.902344 385.128906 C 415.769531 385.175781 414.84375 385.359375 414.628906 385.632812 C 414.605469 385.667969 414.707031 386.242188 414.855469 386.988281 Z M 414.855469 386.988281 " fill-opacity="1" fill-rule="nonzero"/></g></svg>