<svg xmlns="http://www.w3.org/2000/svg" xmlns:xlink="http://www.w3.org/1999/xlink" width="1080" zoomAndPan="magnify" viewBox="0 0 810 809.999993" height="1080" preserveAspectRatio="xMidYMid meet" version="1.0"><defs><clipPath id="ec19436305"><path d="M 271.671875 114.96875 L 585.171875 114.96875 L 585.171875 694.71875 L 271.671875 694.71875 Z M 271.671875 114.96875 " clip-rule="nonzero"/></clipPath><clipPath id="a961f939c4"><path d="M 0.671875 4 L 300 4 L 300 574 L 0.671875 574 Z M 0.671875 4 " clip-rule="nonzero"/></clipPath><clipPath id="8648281e4b"><rect x="0" width="315" y="0" height="581"/></clipPath></defs><g clip-path="url(#ec19436305)"><g transform="matrix(1, 0, 0, 1, 271, 114)"><g clip-path="url(#8648281e4b)"><path fill="#f5f1e8" d="M 153.894531 6.726562 C 168.019531 12.488281 194.195312 25.367188 218.601562 26.355469 C 243.007812 27.339844 265.648438 16.4375 282.472656 14.359375 C 299.296875 12.28125 310.308594 19.03125 312.074219 37.882812 C 313.839844 56.734375 306.363281 87.683594 288.550781 109.339844 C 270.738281 130.992188 242.597656 143.351562 224.78125 146.988281 C 206.96875 150.621094 199.492188 145.535156 192.53125 132.707031 C 185.574219 119.878906 179.136719 99.316406 171.03125 87.164062 C 162.933594 75.011719 153.167969 71.273438 144.546875 66.601562 C 135.925781 61.925781 128.449219 56.316406 125.179688 48.425781 C 121.90625 40.53125 122.839844 30.351562 125.285156 22.511719 C 127.726562 14.671875 131.667969 9.167969 134.679688 5.738281 C 137.699219 2.3125 139.773438 0.960938 153.894531 6.726562 Z M 153.894531 6.726562 " fill-opacity="1" fill-rule="evenodd"/><path fill="#ffffff" d="M 107.355469 498.480469 C 82.808594 499.316406 50.820312 504.847656 32.570312 514.40625 C 14.324219 523.960938 9.816406 537.542969 11.828125 549.234375 C 13.84375 560.929688 22.386719 570.734375 44.613281 575.757812 C 66.835938 580.78125 102.746094 581.023438 127.925781 575.601562 C 153.113281 570.179688 167.574219 559.09375 172.152344 546.441406 C 176.730469 533.789062 171.425781 519.570312 160.222656 510.535156 C 149.015625 501.496094 131.90625 497.640625 107.355469 498.480469 Z M 107.355469 498.480469 " fill-opacity="1" fill-rule="evenodd"/><g clip-path="url(#a961f939c4)"><path fill="#000000" d="M 90.761719 504.441406 C 99.261719 504.382812 107.773438 504.320312 117.160156 505.855469 C 121.746094 506.605469 126.554688 507.734375 131.117188 509.066406 C 133.277344 509.695312 135.382812 510.371094 137.375 511.074219 C 137.292969 511.292969 137.214844 511.527344 137.152344 511.773438 C 136.707031 513.464844 137.410156 514.816406 138.226562 516.390625 C 138.414062 516.75 138.617188 517.132812 138.796875 517.527344 C 139.105469 518.191406 139.320312 518.835938 139.246094 519.386719 C 139.148438 520.042969 138.667969 520.867188 137.515625 521.960938 C 135.835938 523.570312 133.042969 525.433594 129.015625 527.210938 C 125.570312 528.730469 121.285156 530.15625 116.09375 531.277344 C 110.449219 532.496094 103.765625 533.351562 96.808594 533.867188 C 89.214844 534.425781 81.351562 534.585938 74.179688 534.363281 C 67.464844 534.160156 61.28125 533.617188 55.789062 532.816406 C 50.117188 531.992188 45.28125 530.898438 41.453125 529.621094 C 37.835938 528.414062 35.121094 527.050781 33.042969 525.640625 C 31.078125 524.304688 29.699219 522.921875 28.679688 521.597656 C 27.765625 520.414062 27.1875 519.351562 27.007812 518.433594 C 26.902344 517.90625 26.964844 517.429688 27.222656 517.015625 C 27.316406 516.863281 27.425781 516.714844 27.558594 516.566406 C 28.769531 516.132812 30.039062 515.714844 31.382812 515.3125 C 38.554688 513.15625 47.582031 511.460938 54.988281 510.070312 C 57.546875 509.589844 59.957031 509.140625 61.148438 508.902344 C 64.402344 508.253906 66.960938 507.667969 68.988281 507.152344 L 70.738281 506.933594 C 75.527344 506.335938 79.699219 505.8125 82.816406 505.300781 C 85.988281 504.777344 87.972656 504.253906 89.609375 502.171875 C 90.070312 501.585938 90.441406 500.929688 90.746094 500.152344 Z M 118.234375 499.269531 C 108.585938 497.691406 99.980469 497.714844 91.402344 497.773438 C 91.632812 496.589844 91.792969 495.203125 91.917969 493.539062 C 92.195312 489.882812 92.351562 484.484375 92.363281 473.84375 C 92.378906 463.378906 92.257812 447.8125 91.980469 423.707031 C 91.429688 375.992188 90.273438 294.996094 89.679688 253.308594 L 89.660156 251.851562 L 89.660156 251.753906 C 89.261719 223.75 89.117188 213.382812 87.707031 209.5 C 87.875 208.828125 88.023438 208.132812 88.15625 207.410156 C 88.34375 206.347656 88.539062 204.847656 88.746094 203.210938 C 89.039062 200.976562 89.359375 198.453125 89.980469 195.511719 C 90.503906 193.039062 91.234375 190.300781 92.1875 187.464844 C 93.027344 184.964844 94.058594 182.335938 95.296875 179.679688 L 95.285156 179.675781 C 96.546875 176.964844 98.058594 174.214844 99.882812 171.203125 C 101.765625 168.097656 103.871094 164.878906 106.308594 161.246094 C 107.792969 159.042969 109.910156 155.933594 112.085938 152.746094 C 115.722656 147.410156 119.515625 141.847656 122.761719 136.855469 C 125.203125 133.101562 127.25 129.769531 129.238281 126.328125 C 131.242188 122.855469 133.097656 119.414062 135.152344 115.445312 C 136.503906 112.832031 137.976562 109.921875 139.441406 107.039062 C 142.375 101.230469 145.265625 95.511719 147.15625 92.277344 C 148.339844 90.25 147.078125 89.574219 147.574219 89.84375 L 147.675781 89.894531 C 148.527344 90.351562 149.628906 90.882812 150.707031 91.335938 C 151.65625 91.738281 152.609375 92.089844 153.414062 92.300781 C 153.628906 92.355469 153.835938 92.40625 154.046875 92.449219 C 154.257812 93.246094 154.4375 93.90625 154.449219 93.976562 C 154.738281 95.089844 154.527344 94.285156 154.882812 95.730469 C 156.152344 100.792969 158 108.167969 162.089844 117.726562 C 164.382812 123.089844 167.363281 129.09375 170.640625 135.023438 C 173.914062 140.953125 177.496094 146.84375 181.003906 151.984375 C 184.179688 156.648438 187.296875 160.691406 190.214844 164.148438 C 193.785156 168.367188 197.058594 171.714844 199.828125 174.253906 C 202.496094 176.703125 204.789062 178.472656 206.734375 179.382812 C 208.355469 180.140625 209.792969 180.429688 211.054688 180.199219 C 211.480469 180.628906 211.933594 180.988281 212.417969 181.285156 C 214.417969 182.527344 216.558594 182.578125 218.683594 182.152344 C 220.414062 181.804688 222.183594 181.125 224.21875 179.929688 C 226.070312 178.839844 228.136719 177.328125 230.601562 175.238281 C 233.234375 173.007812 236.394531 170.070312 239.855469 166.410156 C 242.679688 163.433594 245.738281 159.9375 248.917969 155.90625 C 252.429688 151.457031 256.023438 146.441406 259.746094 140.679688 C 263.453125 134.949219 267.335938 128.390625 271.449219 120.828125 C 275.832031 112.773438 280.417969 103.664062 284.472656 94.707031 C 288.039062 86.835938 291.238281 78.980469 293.59375 71.917969 C 295.824219 65.230469 297.253906 59.367188 298.132812 54.347656 C 299.261719 47.84375 299.492188 42.636719 299.324219 38.839844 C 299.15625 35.011719 298.570312 32.398438 297.140625 30.234375 C 295.679688 28.023438 293.566406 26.609375 290.355469 25.183594 C 287.421875 23.878906 283.390625 22.5 278.738281 21.304688 C 274.679688 20.265625 270.117188 19.351562 265.355469 18.742188 C 260.464844 18.113281 255.347656 17.804688 250.210938 17.757812 C 244.707031 17.707031 239.179688 17.960938 233.863281 18.449219 C 228.9375 18.902344 224.261719 19.542969 219.871094 20.308594 C 214.96875 21.164062 210.265625 22.203125 205.867188 23.332031 C 201.6875 24.40625 197.820312 25.554688 194.070312 27.136719 C 191.332031 28.285156 188.675781 29.652344 186.027344 31.359375 C 185.539062 30.894531 184.886719 30.402344 184.019531 29.863281 L 184.019531 29.851562 C 182.773438 29.070312 180.300781 27.824219 175.699219 25.527344 C 170.882812 23.117188 164.019531 19.691406 158.195312 16.828125 C 151.601562 13.582031 144.988281 10.371094 140.414062 8.261719 C 135.542969 6.015625 132.722656 4.898438 130.519531 4.523438 C 127.730469 4.042969 126.148438 4.589844 123.882812 5.648438 C 121.84375 6.601562 119.105469 8.0625 116.273438 9.96875 C 114.121094 11.417969 111.863281 13.15625 109.738281 15.179688 C 107.261719 17.539062 105.003906 20.253906 103.109375 23.128906 C 101.195312 26.027344 99.625 29.09375 98.539062 32.140625 C 97.445312 35.207031 96.832031 38.269531 96.523438 41.203125 C 96.230469 44.09375 96.246094 46.820312 96.40625 49.277344 C 96.566406 51.671875 96.871094 53.835938 97.269531 55.695312 C 97.722656 57.78125 98.316406 59.550781 98.984375 60.898438 C 100.460938 63.84375 101.757812 64.527344 108.921875 68.3125 L 110.175781 68.972656 C 111.472656 69.660156 112.46875 70.195312 116.101562 72.125 C 120.367188 74.390625 125.285156 77.007812 129.828125 79.386719 C 129.242188 80.632812 128.671875 82.042969 128.058594 83.609375 C 127.765625 84.359375 127.726562 84.484375 127.054688 86.230469 C 125.5625 90.097656 123.730469 94.855469 121.089844 100.636719 C 119.382812 104.367188 117.355469 108.503906 115.035156 112.84375 C 112.976562 116.695312 110.671875 120.757812 108.128906 124.910156 C 103.898438 131.8125 99.0625 138.878906 94.734375 145.191406 C 94.148438 146.050781 93.578125 146.882812 91.484375 149.964844 C 88.929688 153.730469 86.699219 157.09375 84.746094 160.238281 C 82.765625 163.429688 81.046875 166.441406 79.519531 169.472656 C 77.980469 172.535156 76.65625 175.589844 75.527344 178.953125 C 74.398438 182.316406 73.457031 185.988281 72.667969 190.292969 C 71.902344 194.457031 71.289062 199.25 70.816406 204.546875 C 70.691406 205.917969 70.578125 207.320312 70.472656 208.753906 C 69.402344 209.714844 69.269531 210.628906 69.183594 211.792969 C 69.144531 212.371094 69.109375 213.113281 69.207031 213.863281 C 69.304688 214.695312 69.546875 215.519531 70.027344 216.246094 C 69.9375 218.148438 69.859375 220.09375 69.804688 222.074219 C 69.617188 228.203125 69.566406 234.730469 69.609375 241.855469 C 69.652344 248.96875 69.769531 256.621094 69.921875 265.046875 C 70.042969 271.417969 70.175781 277.925781 70.3125 285.195312 C 70.5625 297.996094 70.863281 313.105469 71.191406 332.132812 C 71.484375 348.75 71.796875 368.40625 72.070312 387.445312 C 72.285156 403.117188 72.472656 418.398438 72.585938 431.269531 C 72.828125 459.84375 72.710938 476.703125 72.585938 493.554688 L 72.585938 493.574219 L 79.246094 493.628906 L 79.246094 493.59375 C 79.375 476.71875 79.492188 459.835938 79.246094 431.214844 C 79.136719 418.296875 78.949219 403.015625 78.730469 387.367188 C 78.460938 368.230469 78.148438 348.582031 77.859375 332.027344 C 77.527344 312.773438 77.226562 297.773438 76.976562 285.0625 C 76.828125 277.609375 76.695312 270.917969 76.59375 264.941406 C 76.4375 256.496094 76.3125 248.847656 76.273438 241.828125 C 76.238281 234.816406 76.277344 228.363281 76.46875 222.257812 C 76.507812 220.898438 76.558594 219.558594 76.613281 218.238281 L 76.667969 218.234375 C 76.957031 218.222656 77.082031 218.222656 77.214844 218.21875 C 79.183594 218.167969 81.464844 218.109375 83.574219 216.628906 C 83.25 220.523438 82.683594 229.785156 82.996094 251.832031 L 82.996094 251.929688 L 83.019531 253.386719 C 83.609375 295.113281 84.765625 376.183594 85.316406 423.757812 C 85.589844 447.859375 85.714844 463.410156 85.703125 473.84375 C 85.6875 484.101562 85.535156 489.378906 85.253906 493.042969 C 85.03125 496 84.796875 497.488281 84.363281 498.042969 C 84.160156 498.292969 83.269531 498.460938 81.742188 498.714844 C 80.933594 498.847656 79.964844 498.988281 78.863281 499.140625 C 77.964844 498.871094 76.878906 498.601562 75.574219 498.320312 C 74.878906 498.171875 73.402344 498.183594 70.613281 498.304688 C 68.007812 498.417969 64.167969 498.613281 59.929688 498.933594 C 55.609375 499.257812 50.589844 499.726562 45.398438 500.398438 C 39.957031 501.105469 34.527344 502.015625 29.558594 503.15625 C 25.035156 504.191406 20.839844 505.417969 17.308594 506.851562 C 13.488281 508.398438 10.394531 510.195312 8.003906 512.15625 C 5.300781 514.367188 3.460938 516.816406 2.441406 519.378906 C 1.355469 522.132812 1.222656 524.976562 2.148438 527.863281 C 2.199219 528.015625 2.253906 528.164062 2.300781 528.316406 C 1.953125 529.488281 1.683594 530.757812 1.460938 532.167969 L 1.460938 532.179688 C 1 535.058594 0.734375 538.613281 0.894531 542.050781 C 1.035156 545.03125 1.488281 547.957031 2.386719 550.386719 C 3.480469 553.328125 5.167969 555.539062 7.53125 557.417969 C 9.65625 559.109375 12.308594 560.476562 15.570312 561.890625 C 18.921875 563.339844 22.945312 564.855469 27.476562 566.25 C 31.355469 567.445312 35.664062 568.570312 40.3125 569.515625 C 45.246094 570.519531 50.488281 571.300781 55.929688 571.871094 C 61.503906 572.453125 67.351562 572.820312 73.367188 572.980469 C 79.179688 573.136719 85.109375 573.09375 90.886719 572.871094 C 96.859375 572.648438 102.65625 572.238281 108.023438 571.671875 C 113.394531 571.101562 118.34375 570.375 122.910156 569.5 C 127.5 568.613281 131.761719 567.5625 135.730469 566.347656 C 139.683594 565.136719 143.335938 563.757812 146.5625 562.273438 C 149.894531 560.746094 152.773438 559.105469 155.078125 557.414062 C 157.503906 555.644531 159.328125 553.792969 160.703125 551.886719 C 162.125 549.910156 163.03125 547.890625 163.566406 545.855469 C 164.382812 542.734375 164.269531 539.835938 164.144531 536.535156 C 164.117188 535.746094 164.089844 534.933594 164.066406 534.265625 C 164.0625 533.925781 164.0625 533.695312 164.054688 533.453125 C 164.003906 530.828125 163.957031 527.976562 163.003906 525.074219 C 163.21875 523.085938 162.808594 521.140625 161.816406 519.214844 C 160.703125 517.042969 158.835938 514.925781 156.125 512.890625 C 153.734375 511.101562 150.640625 509.335938 146.757812 507.613281 C 142.796875 505.855469 138.019531 504.136719 132.972656 502.664062 C 128.144531 501.253906 123.0625 500.058594 118.234375 499.269531 Z M 155.992188 525.660156 C 155.566406 526.566406 154.792969 527.550781 153.644531 528.621094 C 151.808594 530.335938 149.15625 532.148438 145.390625 533.953125 C 142.019531 535.570312 137.765625 537.164062 132.457031 538.652344 C 126.394531 540.355469 119.011719 541.902344 110.789062 543.054688 C 103.320312 544.101562 95.191406 544.828125 86.773438 545.058594 C 78.0625 545.292969 68.925781 545 60.257812 544.296875 C 51.328125 543.574219 42.980469 542.414062 36.15625 540.949219 C 29.550781 539.535156 24.414062 537.847656 20.421875 536.023438 C 16.574219 534.269531 13.808594 532.398438 11.828125 530.539062 C 10.917969 529.683594 10.183594 528.847656 9.628906 528.035156 C 10.332031 526.78125 11.363281 525.632812 12.875 524.375 C 14.699219 522.851562 17.1875 521.207031 20.414062 519.585938 L 20.441406 519.738281 C 20.832031 521.679688 21.851562 523.664062 23.398438 525.675781 C 24.792969 527.476562 26.660156 529.351562 29.308594 531.152344 C 31.84375 532.878906 35.105469 534.523438 39.363281 535.945312 C 43.609375 537.359375 48.835938 538.550781 54.847656 539.429688 C 60.5 540.253906 66.941406 540.8125 74 541.027344 C 81.464844 541.257812 89.554688 541.101562 97.277344 540.53125 C 104.558594 539.992188 111.5625 539.09375 117.5 537.8125 C 123.167969 536.589844 127.886719 535.015625 131.703125 533.328125 C 136.492188 531.214844 139.941406 528.878906 142.117188 526.796875 C 144.492188 524.523438 145.558594 522.394531 145.859375 520.355469 C 146.003906 519.328125 145.960938 518.382812 145.789062 517.492188 C 146.75 517.972656 147.773438 518.523438 148.800781 519.128906 C 150.996094 520.4375 153.113281 521.957031 154.5 523.492188 C 155.128906 524.183594 155.613281 524.910156 155.992188 525.660156 Z M 148.269531 539.960938 C 152.191406 538.078125 155.175781 536.117188 157.40625 534.191406 L 157.40625 534.394531 C 157.425781 535.328125 157.453125 536.0625 157.484375 536.773438 C 157.585938 539.554688 157.683594 542.003906 157.113281 544.183594 C 156.777344 545.457031 156.199219 546.730469 155.292969 547.996094 C 154.324219 549.335938 152.980469 550.683594 151.132812 552.03125 C 149.167969 553.472656 146.679688 554.882812 143.796875 556.210938 C 140.839844 557.566406 137.46875 558.839844 133.773438 559.972656 C 130.074219 561.105469 126.050781 562.09375 121.65625 562.9375 C 117.230469 563.789062 112.46875 564.488281 107.339844 565.03125 C 102.070312 565.589844 96.417969 565.992188 90.648438 566.210938 C 84.976562 566.425781 79.183594 566.46875 73.519531 566.316406 C 67.757812 566.164062 62.074219 565.804688 56.613281 565.230469 C 51.316406 564.679688 46.285156 563.929688 41.621094 562.984375 C 37.273438 562.097656 33.175781 561.027344 29.433594 559.875 C 25.097656 558.539062 21.3125 557.117188 18.210938 555.777344 C 15.488281 554.59375 13.3125 553.488281 11.691406 552.191406 C 10.296875 551.082031 9.300781 549.785156 8.660156 548.058594 C 8.003906 546.285156 7.667969 544.066406 7.558594 541.765625 C 7.464844 539.753906 7.535156 537.703125 7.71875 535.824219 C 10.136719 537.988281 13.355469 540.125 17.65625 542.089844 C 22.085938 544.113281 27.691406 545.964844 34.769531 547.484375 C 41.894531 549.011719 50.542969 550.214844 59.734375 550.960938 C 68.515625 551.675781 77.875 551.96875 86.933594 551.722656 C 95.679688 551.480469 104.058594 550.738281 111.703125 549.667969 C 120.253906 548.46875 127.941406 546.859375 134.261719 545.082031 C 139.914062 543.496094 144.519531 541.757812 148.269531 539.960938 Z M 81.402344 207.085938 C 80.515625 207.082031 79.539062 207.085938 78.578125 207.101562 C 78.140625 207.109375 77.707031 207.117188 77.277344 207.128906 C 77.332031 206.453125 77.394531 205.785156 77.449219 205.121094 C 77.902344 200.082031 78.496094 195.5 79.226562 191.492188 C 79.953125 187.515625 80.824219 184.140625 81.855469 181.070312 C 82.886719 178 84.085938 175.226562 85.476562 172.449219 C 86.886719 169.640625 88.523438 166.796875 90.417969 163.738281 C 92.34375 160.636719 94.515625 157.355469 97 153.703125 L 100.246094 148.957031 C 104.609375 142.59375 109.480469 135.476562 113.820312 128.386719 C 116.371094 124.21875 118.75 120.03125 120.914062 115.980469 C 123.304688 111.496094 125.402344 107.238281 127.152344 103.40625 C 129.828125 97.546875 131.730469 92.617188 133.273438 88.605469 C 133.308594 88.527344 133.339844 88.421875 134.277344 86.039062 C 134.8125 84.679688 135.300781 83.46875 135.761719 82.457031 C 136.730469 82.953125 137.648438 83.421875 138.5 83.847656 C 140.511719 84.855469 142.039062 85.582031 143.1875 86.082031 C 142.636719 86.859375 142.039062 87.800781 141.382812 88.929688 C 139.410156 92.308594 136.464844 98.128906 133.480469 104.03125 C 132.039062 106.878906 130.589844 109.746094 129.222656 112.390625 C 127.132812 116.421875 125.3125 119.796875 123.460938 123.011719 C 121.59375 126.253906 119.597656 129.484375 117.167969 133.222656 C 114.136719 137.890625 110.273438 143.550781 106.574219 148.980469 C 104.699219 151.726562 102.875 154.410156 100.769531 157.53125 C 98.175781 161.390625 95.988281 164.730469 94.160156 167.753906 C 92.273438 170.863281 90.671875 173.808594 89.242188 176.859375 L 89.234375 176.859375 C 87.929688 179.644531 86.808594 182.519531 85.863281 185.347656 C 84.816406 188.460938 84.023438 191.453125 83.449219 194.152344 C 82.800781 197.230469 82.445312 199.960938 82.132812 202.371094 C 81.972656 203.652344 81.820312 204.828125 81.570312 206.234375 C 81.519531 206.527344 81.464844 206.8125 81.402344 207.085938 Z M 152.449219 84.824219 C 152.027344 84.628906 151.613281 84.429688 151.238281 84.238281 C 150.863281 83.367188 150.277344 82.363281 149.566406 81.261719 C 149.085938 80.519531 148.269531 79.550781 147.257812 78.554688 C 146.429688 77.738281 145.414062 76.84375 144.289062 75.992188 C 143.050781 75.050781 141.683594 74.171875 140.261719 73.625 C 138.394531 72.90625 136.476562 72.753906 134.636719 73.605469 C 134.386719 73.71875 134.15625 73.847656 133.921875 73.992188 C 129.292969 71.566406 123.890625 68.691406 119.238281 66.21875 C 118.460938 65.808594 117.996094 65.558594 113.285156 63.066406 L 112.03125 62.40625 C 106.460938 59.460938 105.453125 58.929688 104.941406 57.917969 C 104.53125 57.097656 104.140625 55.875 103.808594 54.308594 C 103.472656 52.742188 103.214844 50.898438 103.074219 48.832031 C 102.929688 46.6875 102.914062 44.328125 103.164062 41.882812 C 103.410156 39.476562 103.925781 36.949219 104.839844 34.390625 C 105.75 31.824219 107.066406 29.246094 108.679688 26.816406 C 110.308594 24.34375 112.234375 22.019531 114.335938 20.015625 C 116.136719 18.304688 118.101562 16.792969 120.011719 15.507812 C 122.582031 13.773438 124.972656 12.5 126.707031 11.6875 C 127.746094 11.199219 128.433594 10.945312 129.390625 11.105469 C 130.929688 11.371094 133.3125 12.339844 137.621094 14.324219 C 142.226562 16.453125 148.757812 19.621094 155.246094 22.8125 C 162.5 26.382812 168.648438 29.445312 172.722656 31.484375 C 174.925781 32.589844 176.613281 33.433594 177.886719 34.089844 C 177.058594 34.746094 176.109375 35.527344 175.066406 36.46875 C 173.265625 38.085938 171.121094 40.21875 168.945312 42.765625 C 167.226562 44.769531 165.488281 47.046875 163.894531 49.550781 C 162.242188 52.144531 160.773438 54.933594 159.484375 57.761719 C 157.976562 61.070312 156.722656 64.375 155.710938 67.449219 C 154.765625 70.308594 154 73.085938 153.425781 75.664062 C 152.863281 78.246094 152.519531 80.5625 152.429688 82.503906 C 152.394531 83.34375 152.402344 84.101562 152.449219 84.824219 Z M 159.867188 88.363281 C 160.234375 87.429688 160.605469 86.257812 161 84.773438 C 161.226562 83.9375 161.484375 82.921875 161.769531 81.804688 C 163.164062 76.28125 165.261719 67.972656 169.003906 60.539062 C 171.136719 56.300781 173.839844 52.277344 176.816406 48.675781 C 179.984375 44.835938 183.449219 41.503906 186.855469 38.929688 C 190.125 36.453125 193.332031 34.671875 196.65625 33.277344 C 200.054688 31.84375 203.632812 30.785156 207.511719 29.789062 C 211.617188 28.734375 216.128906 27.742188 220.992188 26.894531 C 225.347656 26.136719 229.863281 25.511719 234.460938 25.089844 C 239.578125 24.617188 244.886719 24.375 250.15625 24.421875 C 255.035156 24.464844 259.886719 24.761719 264.519531 25.355469 C 269.007812 25.929688 273.289062 26.785156 277.09375 27.761719 C 278.285156 28.066406 279.425781 28.382812 280.507812 28.707031 C 280.101562 28.925781 279.683594 29.171875 279.238281 29.449219 C 276.882812 30.945312 273.824219 33.457031 270.003906 37.542969 C 265.042969 42.847656 258.695312 50.917969 252.179688 60.289062 C 246.296875 68.765625 240.246094 78.355469 234.945312 87.992188 C 229.757812 97.417969 225.304688 106.863281 221.613281 115.777344 C 217.375 125.992188 214.128906 135.546875 211.910156 143.589844 C 209.980469 150.601562 208.832031 156.457031 208.253906 161.234375 C 207.703125 165.832031 207.679688 169.542969 208 172.398438 C 206.976562 171.667969 205.757812 170.628906 204.347656 169.339844 C 201.757812 166.960938 198.675781 163.8125 195.3125 159.835938 C 192.53125 156.542969 189.5625 152.683594 186.515625 148.222656 C 183.144531 143.269531 179.671875 137.566406 176.492188 131.8125 C 173.300781 126.035156 170.425781 120.238281 168.230469 115.113281 C 164.359375 106.070312 162.582031 98.976562 161.363281 94.109375 C 161.324219 93.917969 161.476562 94.550781 160.90625 92.328125 C 160.453125 90.558594 160.339844 90.121094 160.242188 89.769531 C 160.109375 89.265625 159.984375 88.800781 159.867188 88.363281 Z M 289.851562 32.382812 C 290.640625 32.867188 291.199219 33.355469 291.574219 33.917969 C 292.257812 34.949219 292.550781 36.554688 292.660156 39.125 C 292.808594 42.5 292.589844 47.207031 291.539062 53.222656 C 290.710938 58.011719 289.359375 63.5625 287.265625 69.828125 C 285.039062 76.53125 281.90625 84.183594 278.382812 91.964844 C 274.347656 100.871094 269.851562 109.816406 265.59375 117.640625 C 261.613281 124.96875 257.800781 131.390625 254.128906 137.074219 C 250.46875 142.734375 247.007812 147.574219 243.691406 151.777344 C 240.699219 155.566406 237.773438 158.914062 235.027344 161.808594 C 231.746094 165.269531 228.769531 168.042969 226.289062 170.144531 C 224.085938 172.007812 222.328125 173.308594 220.84375 174.179688 C 219.535156 174.949219 218.425781 175.382812 217.375 175.59375 C 216.726562 175.722656 216.167969 175.773438 215.917969 175.617188 C 215.773438 175.527344 215.632812 175.363281 215.492188 175.117188 C 216.023438 173.015625 216.175781 170.347656 216.34375 167.3125 C 216.453125 165.351562 216.582031 163.214844 216.808594 161.054688 C 217.152344 157.839844 217.738281 154.535156 218.511719 151.136719 C 219.285156 147.75 220.265625 144.183594 221.390625 140.457031 C 222.511719 136.734375 223.75 132.933594 224.914062 129.496094 C 226.078125 126.054688 227.1875 122.914062 228.007812 120.589844 C 228.78125 118.40625 229.285156 116.996094 229.6875 116.226562 C 229.78125 116.046875 229.640625 116.046875 229.710938 116.019531 C 230.023438 115.902344 230.753906 115.816406 231.683594 115.707031 C 233.1875 115.53125 235.074219 115.308594 237.429688 114.671875 C 239.621094 114.082031 242.191406 113.128906 244.804688 111.90625 C 247.179688 110.792969 249.578125 109.457031 251.726562 107.976562 C 254.023438 106.394531 256.054688 104.636719 257.851562 102.601562 C 259.65625 100.5625 261.210938 98.273438 262.542969 95.644531 C 263.894531 92.972656 265.035156 89.917969 265.808594 86.742188 C 266.535156 83.777344 266.945312 80.695312 266.910156 77.707031 C 266.875 74.601562 266.367188 71.652344 265.710938 69.09375 C 265.050781 66.550781 264.261719 64.414062 263.636719 62.898438 L 263.636719 62.886719 L 263.441406 62.425781 L 263.441406 62.410156 C 263 61.359375 262.867188 61.046875 264.960938 58.425781 C 266.722656 56.210938 269.558594 52.980469 272.597656 49.699219 C 275.488281 46.582031 278.550781 43.429688 281.050781 41.058594 C 282.910156 39.296875 284.488281 37.945312 285.707031 36.898438 C 287.867188 35.042969 289.363281 33.75 289.851562 32.382812 Z M 231.871094 108.957031 C 234.539062 103.128906 237.515625 97.164062 240.796875 91.207031 C 245.816406 82.078125 251.558594 72.949219 257.1875 64.796875 L 257.273438 65 L 257.28125 64.996094 L 257.46875 65.449219 L 257.476562 65.445312 C 258.019531 66.773438 258.707031 68.617188 259.25 70.742188 C 259.800781 72.855469 260.21875 75.269531 260.25 77.757812 C 260.277344 80.171875 259.933594 82.703125 259.328125 85.171875 C 258.679688 87.824219 257.726562 90.386719 256.582031 92.636719 C 255.503906 94.765625 254.277344 96.589844 252.859375 98.1875 C 251.4375 99.789062 249.808594 101.199219 247.933594 102.492188 C 246.085938 103.761719 244.023438 104.910156 241.984375 105.867188 C 239.78125 106.898438 237.585938 107.710938 235.710938 108.21875 C 234.246094 108.613281 232.964844 108.816406 231.871094 108.957031 Z M 231.871094 108.957031 " fill-opacity="1" fill-rule="nonzero"/></g></g></g></g></svg>