<svg xmlns="http://www.w3.org/2000/svg" xmlns:xlink="http://www.w3.org/1999/xlink" width="1080" zoomAndPan="magnify" viewBox="0 0 810 809.999993" height="1080" preserveAspectRatio="xMidYMid meet" version="1.0"><defs><clipPath id="317e87724e"><path d="M 235.039062 178.0625 L 638.539062 178.0625 L 638.539062 691.8125 L 235.039062 691.8125 Z M 235.039062 178.0625 " clip-rule="nonzero"/></clipPath></defs><path fill="#f5f1e8" d="M 330.363281 207.878906 C 362.402344 192.664062 394.101562 187.644531 430.429688 188.246094 C 466.753906 188.84375 507.707031 195.058594 541.484375 216.511719 C 575.269531 237.960938 601.886719 274.644531 604.375 308.882812 C 606.863281 343.117188 585.234375 374.90625 563.171875 389.414062 C 541.117188 403.917969 518.632812 401.144531 477.105469 396.152344 C 435.578125 391.160156 375.011719 383.953125 333.992188 378.671875 C 292.96875 373.394531 271.488281 370.046875 258.011719 352.910156 C 244.539062 335.773438 239.066406 304.851562 252.515625 276.679688 C 265.960938 248.507812 298.332031 223.09375 330.363281 207.878906 Z M 330.363281 207.878906 " fill-opacity="1" fill-rule="evenodd"/><g clip-path="url(#317e87724e)"><path fill="#000000" d="M 409.078125 598.457031 C 408.9375 599.328125 408.777344 600.222656 408.582031 601.152344 C 407.992188 604.042969 407.136719 607.070312 405.75 610.371094 C 395.902344 633.878906 383.214844 638.722656 362.527344 646.613281 L 361.453125 647.023438 C 359.484375 647.777344 357.648438 648.578125 356.09375 649.355469 C 355.390625 649.707031 354.734375 650.0625 354.136719 650.40625 C 354.554688 650.601562 355 650.828125 355.492188 651.078125 C 356.492188 651.589844 357.84375 652.28125 359.554688 652.925781 C 361.300781 653.578125 363.570312 654.222656 366.351562 654.875 C 369.15625 655.53125 372.472656 656.1875 376.308594 656.855469 C 392.363281 659.65625 410.488281 661.410156 428.488281 661.792969 C 445.3125 662.148438 462.085938 661.304688 477.027344 659 C 481.847656 658.257812 485.601562 657.34375 488.492188 656.351562 C 491.550781 655.300781 493.507812 654.230469 494.648438 653.214844 C 495.039062 652.871094 495.332031 652.515625 495.554688 652.164062 C 495.226562 651.902344 494.871094 651.648438 494.484375 651.398438 C 492.28125 649.976562 488.960938 648.703125 485.371094 647.328125 C 484.773438 647.097656 484.148438 646.859375 482.074219 646.039062 C 471.234375 641.734375 463.222656 635.621094 457.195312 627.835938 C 451.253906 620.152344 447.320312 610.90625 444.578125 600.214844 C 444.457031 599.730469 444.339844 599.292969 444.246094 598.890625 C 443.59375 599.105469 442.835938 599.3125 441.945312 599.507812 C 440.542969 599.8125 438.707031 600.097656 436.621094 600.328125 C 434.757812 600.535156 432.621094 600.699219 430.363281 600.796875 C 428.019531 600.894531 425.589844 600.910156 423.214844 600.824219 C 420.96875 600.738281 418.789062 600.566406 416.820312 600.289062 C 414.792969 600 412.984375 599.621094 411.476562 599.210938 C 410.613281 598.976562 409.804688 598.71875 409.078125 598.457031 Z M 400.585938 599.523438 C 401.074219 597.148438 401.363281 594.703125 401.648438 592.261719 L 403.023438 592.417969 C 403.015625 591.90625 403.09375 591.421875 403.210938 590.960938 C 403.449219 590.011719 403.871094 589.164062 404.726562 588.328125 C 405.304688 587.765625 406.015625 587.277344 406.972656 586.832031 C 407.640625 586.519531 408.574219 586.167969 409.632812 585.839844 C 410.570312 585.550781 411.546875 585.292969 412.460938 585.117188 C 413.121094 584.988281 413.835938 584.886719 414.554688 584.8125 C 414.316406 584.183594 414 583.507812 413.589844 582.796875 C 412.796875 581.421875 411.574219 579.796875 410.460938 578.3125 C 409.855469 577.507812 409.28125 576.738281 408.777344 576.023438 C 407.273438 575.34375 406.203125 574.5625 405.375 573.367188 C 404.203125 571.660156 403.988281 569.867188 404.324219 567.265625 C 404.621094 564.949219 405.402344 561.695312 406.289062 558.003906 C 406.65625 556.464844 407.042969 554.84375 407.53125 552.671875 C 408.964844 546.351562 409.835938 540.359375 409.992188 534.398438 C 410.152344 528.460938 409.605469 522.503906 408.195312 516.226562 C 407.570312 513.429688 406.777344 510.878906 405.734375 508.046875 C 404.671875 505.132812 403.339844 501.949219 401.664062 497.925781 C 400.65625 495.511719 400.003906 493.996094 399.296875 492.359375 C 393.636719 479.269531 385.429688 460.304688 387.070312 448.085938 C 389.148438 432.625 396.21875 426.496094 403.902344 419.839844 C 407.402344 416.796875 411.066406 413.628906 414.246094 409.230469 C 409.625 409.402344 404.65625 409.414062 399.484375 409.234375 C 393.277344 409.019531 386.882812 408.539062 380.703125 407.785156 C 374.855469 407.070312 369.058594 406.097656 363.613281 404.851562 C 358.03125 403.574219 352.871094 402.007812 348.210938 400.371094 C 343.5625 398.734375 339.449219 397.042969 335.894531 395.492188 C 332.242188 393.894531 329.199219 392.460938 326.796875 391.160156 C 324.15625 389.726562 322.078125 388.347656 320.566406 386.96875 C 319.703125 386.1875 319 385.386719 318.480469 384.542969 C 317.632812 384.625 316.488281 384.746094 315.273438 384.875 C 308.511719 385.589844 299.457031 386.550781 288.53125 385.777344 C 281.667969 385.292969 274.078125 384.121094 267.070312 382.414062 C 260.480469 380.804688 254.378906 378.714844 249.8125 376.265625 C 245.5 373.949219 242.496094 371.292969 240.453125 368.703125 C 237.441406 364.886719 236.445312 361.0625 236.445312 358.453125 C 236.445312 358.25 236.449219 358.050781 236.453125 357.863281 C 236.097656 357.113281 235.800781 356.164062 235.589844 355.003906 C 235.21875 352.949219 235.058594 349.898438 235.324219 345.613281 C 235.644531 340.472656 236.554688 333.367188 238.222656 325.699219 C 239.550781 319.578125 241.367188 313.054688 243.75 306.816406 C 246.445312 299.753906 249.871094 293.058594 254.296875 286.253906 C 258.652344 279.554688 263.980469 272.769531 270.539062 265.445312 C 277.398438 257.78125 285.625 249.511719 294.917969 241.210938 C 303.246094 233.777344 312.4375 226.320312 322.285156 219.25 C 331.457031 212.667969 341.183594 206.433594 350.304688 200.976562 C 361.992188 193.984375 372.726562 188.242188 380.078125 184.671875 C 393.671875 178.066406 396.621094 178.386719 403.453125 179.128906 L 404.082031 179.195312 L 405.316406 179.328125 C 410.871094 179.90625 418.410156 180.699219 423.523438 183.292969 C 424.667969 182.824219 426.148438 182.496094 428.15625 182.273438 C 430.78125 181.980469 434.636719 181.941406 439.15625 182.058594 C 443.679688 182.179688 448.691406 182.445312 453.714844 182.769531 L 455.460938 182.886719 C 456.828125 181.234375 458.941406 180.769531 462.5625 180.804688 C 465.113281 180.832031 468.660156 181.03125 472.207031 181.304688 C 476.402344 181.628906 480.695312 182.046875 483.515625 182.398438 C 484.671875 182.542969 485.628906 182.6875 486.429688 182.828125 C 487.191406 182.601562 488.011719 182.535156 488.867188 182.613281 C 489.988281 182.714844 491.195312 183.058594 492.304688 183.546875 C 493.269531 183.972656 494.238281 184.546875 495.167969 185.238281 C 496.066406 185.910156 496.886719 186.675781 497.585938 187.503906 C 498.144531 188.183594 498.5625 188.796875 498.980469 189.421875 C 499.410156 190.0625 499.859375 190.722656 500.382812 191.242188 C 500.820312 191.6875 501.425781 192.140625 502.324219 192.710938 C 503.53125 193.476562 504.980469 194.296875 506.90625 195.355469 L 506.929688 195.355469 C 509.847656 196.957031 507.8125 195.847656 508.617188 196.285156 C 512.855469 198.59375 518.625 201.738281 524.234375 205.332031 C 527.464844 207.402344 530.703125 209.660156 533.988281 212.105469 C 537.195312 214.492188 540.460938 217.070312 543.828125 219.832031 C 547.1875 222.589844 550.625 225.53125 553.929688 228.453125 C 557.214844 231.363281 560.308594 234.210938 563.007812 236.816406 C 565.832031 239.546875 568.273438 242.054688 570.574219 244.5625 C 572.8125 246.996094 575.019531 249.558594 577.414062 252.445312 C 579.988281 255.550781 582.644531 258.859375 585.117188 262.121094 C 587.296875 264.996094 589.476562 268.015625 591.546875 271.09375 C 593.777344 274.398438 595.769531 277.621094 597.597656 280.878906 C 599.445312 284.164062 601.171875 287.550781 602.84375 291.15625 C 604.480469 294.71875 606.070312 298.511719 607.523438 302.492188 C 608.96875 306.464844 610.265625 310.597656 611.316406 314.839844 C 612.410156 319.242188 613.242188 323.761719 613.746094 328.304688 L 613.753906 328.425781 C 614.371094 328.914062 615.019531 329.476562 615.683594 330.109375 C 617.277344 331.628906 619.121094 333.652344 621.078125 336.175781 C 623.214844 338.9375 625.515625 342.335938 627.722656 346.070312 C 629.714844 349.464844 631.621094 353.121094 633.234375 356.820312 C 635.03125 360.9375 636.484375 365.128906 637.414062 369.144531 C 638.296875 372.980469 638.714844 376.691406 638.519531 380.082031 C 638.3125 383.636719 637.425781 386.804688 636.054688 389.585938 C 634.550781 392.617188 632.457031 395.171875 629.988281 397.25 C 627.738281 399.148438 625.175781 400.628906 622.472656 401.703125 C 619.625 402.832031 616.636719 403.519531 613.6875 403.777344 C 610.863281 404.023438 608.058594 403.882812 605.324219 403.554688 C 602.699219 403.238281 600.171875 402.757812 597.757812 402.285156 C 595.347656 401.8125 593.023438 401.347656 590.910156 400.671875 C 590.398438 400.511719 589.914062 400.335938 589.449219 400.144531 C 588.542969 400.898438 587.613281 401.644531 586.679688 402.371094 C 582.304688 405.765625 577.59375 408.851562 573.097656 411.242188 C 568.582031 413.648438 564.316406 415.339844 559.863281 416.570312 C 555.4375 417.792969 550.878906 418.554688 545.75 419.105469 C 540.730469 419.648438 535.089844 419.992188 528.824219 419.972656 C 522.523438 419.957031 515.71875 419.574219 508.453125 418.667969 C 501.21875 417.761719 493.355469 416.316406 486.03125 414.78125 C 478.695312 413.242188 472.054688 411.648438 467.105469 410.414062 L 467.105469 410.410156 C 462.015625 409.140625 458.648438 408.238281 456.289062 407.535156 C 454.1875 406.90625 452.765625 406.40625 451.589844 405.933594 C 449.152344 406.261719 447.132812 406.292969 445.414062 406.316406 L 445.175781 406.320312 C 443.738281 406.34375 442.5625 406.371094 441.722656 406.472656 C 442.167969 408.804688 449.894531 416.238281 456.5625 422.660156 C 461.53125 427.4375 466.019531 431.761719 467.640625 434.890625 C 469.984375 439.4375 471.097656 444.328125 471.300781 449.28125 C 471.53125 454.800781 470.632812 460.347656 469.0625 465.527344 C 466.882812 472.722656 463.5625 479.910156 460.214844 487.144531 C 457.539062 492.933594 454.851562 498.753906 452.808594 504.511719 C 451.722656 507.578125 450.769531 510.613281 449.972656 513.558594 C 449.167969 516.515625 448.535156 519.316406 448.074219 521.914062 C 447.175781 527.046875 447.003906 532.074219 447.375 537.082031 C 447.757812 542.164062 448.691406 547.246094 449.988281 552.394531 C 450.585938 554.753906 451.246094 556.972656 451.835938 558.953125 C 452.546875 561.332031 453.160156 563.375 453.496094 565.160156 C 453.898438 567.257812 453.921875 568.941406 453.484375 570.582031 C 453.023438 572.285156 452.136719 573.683594 450.734375 575.179688 C 449.734375 576.253906 448.585938 577.261719 447.375 578.324219 C 446.050781 579.488281 444.636719 580.730469 443.542969 581.96875 C 442.65625 582.976562 442.011719 583.960938 441.519531 584.851562 C 441.304688 585.25 441.117188 585.632812 440.953125 585.996094 L 441.183594 586.050781 C 442.160156 586.265625 443.160156 586.492188 443.828125 586.679688 C 445.117188 587.050781 446.269531 587.515625 447.253906 588.078125 C 448.457031 588.761719 449.410156 589.578125 450.101562 590.539062 C 451.015625 591.820312 451.238281 592.804688 451.714844 594.9375 C 451.894531 595.769531 452.136719 596.847656 452.484375 598.199219 C 454.957031 607.835938 458.4375 616.097656 463.660156 622.84375 C 468.804688 629.484375 475.703125 634.726562 485.082031 638.453125 C 485.203125 638.5 486.757812 639.09375 488.285156 639.679688 C 492.269531 641.207031 495.964844 642.625 498.902344 644.519531 C 499.828125 645.113281 500.65625 645.742188 501.398438 646.390625 C 502.109375 646.425781 502.828125 646.621094 503.527344 646.984375 C 504.253906 647.359375 504.972656 647.933594 505.632812 648.707031 C 506.546875 649.785156 507.480469 651.449219 508.179688 653.71875 C 508.820312 655.765625 509.292969 658.398438 509.589844 661.121094 C 509.882812 663.898438 510 666.847656 509.898438 669.398438 C 509.777344 672.386719 509.367188 674.941406 507.660156 677.441406 C 506.035156 679.808594 503.425781 681.78125 498.988281 683.523438 C 483.996094 689.414062 454.820312 692.035156 425.675781 691.660156 C 396.253906 691.28125 366.625 687.847656 351.398438 681.640625 C 347.996094 680.253906 345.9375 679.203125 344.441406 677.652344 C 342.621094 675.765625 342.074219 673.832031 341.851562 670.847656 C 341.707031 668.863281 341.714844 666.152344 341.824219 663.371094 C 341.945312 660.230469 342.183594 657.089844 342.457031 654.859375 C 342.765625 652.339844 343.160156 650.59375 343.894531 649.066406 C 344.742188 647.308594 345.859375 646.152344 347.542969 644.9375 C 348.824219 644.015625 350.519531 643.023438 352.449219 642.058594 C 354.382812 641.089844 356.476562 640.164062 358.546875 639.371094 L 359.613281 638.964844 C 378.269531 631.84375 389.714844 627.480469 398.195312 607.234375 C 399.375 604.421875 400.09375 601.898438 400.585938 599.523438 Z M 350.1875 660.007812 C 350.101562 661.207031 350.03125 662.449219 349.988281 663.660156 C 349.894531 666.101562 349.886719 668.496094 350.015625 670.269531 C 350.089844 671.277344 350.167969 671.816406 350.332031 671.988281 C 350.824219 672.5 352.125 673.097656 354.46875 674.054688 C 368.789062 679.894531 397.277344 683.128906 425.769531 683.5 C 453.988281 683.863281 481.984375 681.417969 496.007812 675.90625 C 498.757812 674.828125 500.210938 673.851562 500.90625 672.832031 C 501.511719 671.945312 501.671875 670.671875 501.734375 669.078125 C 501.792969 667.625 501.765625 665.984375 501.65625 664.316406 C 499.792969 665.617188 497.238281 667.050781 494.089844 668.410156 C 491.304688 669.613281 488.015625 670.789062 484.292969 671.800781 C 470.453125 675.554688 451.527344 676.992188 432.363281 676.691406 C 411.214844 676.359375 389.714844 673.910156 374.480469 670.132812 C 369.667969 668.9375 365.488281 667.632812 361.992188 666.320312 C 357.980469 664.816406 354.84375 663.28125 352.648438 661.859375 C 351.683594 661.234375 350.871094 660.613281 350.1875 660.007812 Z M 434.421875 592.332031 C 432.824219 591.320312 432.105469 589.996094 431.996094 588.160156 C 431.925781 586.941406 432.234375 585.863281 432.738281 584.523438 C 433.105469 583.539062 433.609375 582.308594 434.347656 580.949219 C 434.671875 580.359375 435.03125 579.75 435.433594 579.132812 C 435.25 579.160156 435.054688 579.183594 434.867188 579.207031 C 432.167969 579.535156 429.207031 579.714844 426.242188 579.625 C 424.410156 579.570312 422.609375 579.40625 420.914062 579.171875 C 421.695312 580.597656 422.234375 581.9375 422.609375 583.125 C 423.191406 585.007812 423.359375 586.652344 423.316406 587.734375 C 423.171875 590.851562 422.4375 592.058594 421.078125 592.523438 C 421.875 592.585938 422.6875 592.632812 423.503906 592.660156 C 425.652344 592.742188 427.882812 592.726562 430.039062 592.632812 C 431.53125 592.570312 433.011719 592.46875 434.421875 592.332031 Z M 445.503906 566.925781 L 445.460938 566.699219 C 445.203125 565.355469 444.644531 563.472656 443.996094 561.289062 C 443.382812 559.238281 442.695312 556.933594 442.054688 554.378906 C 440.652344 548.804688 439.628906 543.273438 439.210938 537.691406 C 438.792969 532.027344 438.980469 526.328125 440.011719 520.503906 C 440.515625 517.632812 441.203125 514.585938 442.066406 511.414062 C 442.894531 508.371094 443.902344 505.148438 445.097656 501.789062 C 447.261719 495.683594 450.039062 489.6875 452.792969 483.71875 C 456 476.789062 459.179688 469.902344 461.222656 463.160156 C 462.554688 458.75 463.324219 454.105469 463.136719 449.605469 C 462.984375 445.796875 462.144531 442.0625 460.375 438.636719 C 459.375 436.707031 455.351562 432.832031 450.902344 428.546875 C 443.671875 421.59375 435.515625 413.742188 434.082031 407.203125 C 432.890625 407.425781 431.625 407.644531 430.277344 407.847656 C 428.429688 408.121094 426.421875 408.367188 424.273438 408.574219 L 424.171875 408.773438 C 419.761719 416.902344 414.367188 421.578125 409.246094 426.019531 C 402.785156 431.617188 396.828125 436.773438 395.167969 449.171875 C 393.832031 459.167969 401.492188 476.890625 406.785156 489.128906 C 407.835938 491.5625 408.8125 493.824219 409.214844 494.785156 C 410.941406 498.929688 412.308594 502.210938 413.425781 505.230469 C 414.5625 508.328125 415.4375 511.183594 416.164062 514.433594 C 417.726562 521.386719 418.332031 527.992188 418.15625 534.589844 C 417.976562 541.15625 417.042969 547.667969 415.503906 554.464844 C 415.164062 555.976562 414.683594 557.992188 414.222656 559.890625 C 413.710938 562.027344 413.238281 564.011719 412.890625 565.660156 C 413.066406 565.667969 413.246094 565.679688 413.429688 565.695312 C 414.972656 565.832031 417.035156 566.296875 419.386719 566.828125 C 420.839844 567.15625 422.421875 567.515625 424.085938 567.828125 C 426.097656 568.207031 428.128906 568.5 430.027344 568.671875 C 431.804688 568.835938 433.515625 568.898438 435.039062 568.84375 C 438.054688 568.734375 440.449219 568.117188 442.253906 567.652344 L 442.328125 567.636719 C 443.46875 567.339844 444.417969 567.101562 445.082031 566.988281 C 445.226562 566.964844 445.371094 566.941406 445.503906 566.925781 Z M 441.792969 405.953125 C 441.785156 405.964844 441.78125 405.980469 441.773438 405.996094 C 441.875 405.855469 441.921875 405.78125 441.792969 405.953125 Z M 452.628906 397.460938 C 454.792969 397.015625 457.300781 396.269531 460.257812 395.019531 C 464.113281 393.390625 468.738281 390.914062 473.839844 387.75 C 478.898438 384.621094 484.464844 380.785156 490.253906 376.394531 C 496.492188 371.679688 502.898438 366.382812 508.878906 360.714844 C 514.007812 355.847656 518.824219 350.707031 522.949219 345.429688 C 527.121094 340.074219 530.636719 334.496094 533.550781 328.894531 C 536.800781 322.664062 539.277344 316.488281 541.089844 310.625 C 542.800781 305.082031 543.9375 299.78125 544.5625 294.59375 C 545.179688 289.433594 545.289062 284.40625 544.9375 279.390625 C 544.589844 274.367188 543.792969 269.363281 542.613281 264.542969 C 541.417969 259.6875 539.824219 254.972656 537.875 250.582031 C 535.960938 246.261719 533.707031 242.289062 531.277344 238.636719 C 528.824219 234.945312 526.191406 231.59375 523.53125 228.546875 C 520.867188 225.503906 518.148438 222.730469 515.335938 220.132812 C 512.511719 217.519531 509.632812 215.121094 506.667969 212.828125 C 504.078125 210.828125 501.136719 208.695312 498.410156 206.726562 C 495.167969 204.378906 492.234375 202.257812 490.046875 200.410156 C 487.878906 198.585938 486.5 197.0625 485.558594 195.726562 C 484.78125 194.625 484.304688 193.683594 483.953125 192.8125 C 482.902344 192.824219 481.628906 192.808594 480.078125 192.746094 C 476.214844 192.589844 471.035156 192.210938 465.285156 191.789062 L 464.15625 191.703125 C 465.640625 196.152344 467.523438 202.449219 468.53125 209.695312 C 469.1875 214.402344 469.480469 219.5 469.179688 224.914062 C 468.875 230.34375 467.992188 236.066406 466.292969 241.996094 C 464.617188 247.875 462.144531 253.972656 458.820312 260.511719 C 455.539062 266.957031 451.453125 273.816406 446.5 281.300781 C 441.097656 289.464844 434.660156 298.398438 427.378906 307.175781 C 421.335938 314.460938 414.65625 321.703125 407.402344 328.40625 C 399.457031 335.753906 390.960938 342.320312 382.625 348.078125 C 374.292969 353.835938 366.113281 358.808594 358.8125 362.957031 C 351.503906 367.113281 345.140625 370.414062 339.902344 373.132812 C 337.039062 374.617188 334.523438 375.921875 332.421875 377.070312 C 333.386719 377.320312 334.363281 377.621094 335.40625 377.972656 C 337.234375 378.585938 339.226562 379.359375 341.433594 380.210938 C 345.542969 381.792969 350.417969 383.675781 356.058594 385.246094 C 360.359375 386.441406 365.136719 387.46875 370.292969 388.296875 C 375.402344 389.121094 380.941406 389.761719 386.832031 390.191406 C 390.515625 390.464844 393.929688 390.636719 397.253906 390.804688 C 406.035156 391.25 414.195312 391.664062 419 393.203125 C 423.546875 394.667969 425.609375 397.132812 426.179688 400.140625 C 427.183594 400.019531 428.164062 399.890625 429.089844 399.75 C 433.601562 399.074219 437.148438 398.203125 439.925781 397.519531 C 442.003906 397.011719 443.6875 396.59375 445.210938 396.390625 C 448.734375 395.914062 450.546875 396.539062 452.628906 397.460938 Z M 478.132812 394.695312 C 473.574219 397.519531 469.328125 399.851562 465.574219 401.589844 C 466.640625 401.863281 467.804688 402.160156 469.078125 402.476562 L 469.09375 402.476562 C 474.078125 403.722656 480.6875 405.308594 487.699219 406.78125 C 494.722656 408.253906 502.324219 409.648438 509.445312 410.539062 C 516.539062 411.425781 522.992188 411.796875 528.824219 411.8125 C 534.6875 411.832031 540.058594 411.496094 544.886719 410.976562 C 549.613281 410.46875 553.757812 409.78125 557.683594 408.699219 C 561.582031 407.621094 565.316406 406.140625 569.257812 404.042969 C 573.320312 401.878906 577.636719 399.046875 581.679688 395.90625 C 582.484375 395.28125 583.277344 394.648438 584.054688 394.003906 C 583.894531 392.398438 584.371094 390.710938 585.339844 388.84375 C 586.332031 386.925781 587.808594 384.855469 589.640625 382.292969 L 589.777344 382.101562 C 593.1875 377.351562 597.871094 370.804688 600.984375 363.761719 C 601.460938 362.6875 601.898438 361.601562 602.308594 360.503906 C 603.085938 352.503906 603.085938 343.480469 603.085938 337.941406 C 603.085938 334.367188 603.085938 332.15625 603.375 330.53125 C 603.753906 328.414062 604.351562 327.050781 605.246094 326.3125 C 604.785156 323.097656 604.152344 319.910156 603.382812 316.792969 C 602.394531 312.832031 601.195312 308.980469 599.84375 305.277344 C 598.496094 301.582031 596.992188 298 595.410156 294.582031 C 593.859375 291.214844 592.226562 288.015625 590.460938 284.878906 C 588.6875 281.710938 586.800781 278.667969 584.765625 275.640625 C 582.886719 272.851562 580.78125 269.941406 578.585938 267.050781 C 575.988281 263.621094 573.457031 260.453125 571.132812 257.660156 C 568.96875 255.050781 566.863281 252.613281 564.558594 250.097656 C 562.316406 247.660156 559.992188 245.265625 557.339844 242.707031 C 554.617188 240.078125 551.613281 237.308594 548.519531 234.570312 C 545.304688 231.714844 541.9375 228.84375 538.644531 226.136719 C 535.433594 223.5 532.277344 221.011719 529.121094 218.664062 C 526.039062 216.375 522.960938 214.226562 519.820312 212.214844 C 518.546875 211.398438 517.273438 210.609375 516.011719 209.851562 C 517.667969 211.230469 519.285156 212.648438 520.875 214.117188 C 523.847656 216.867188 526.765625 219.84375 529.671875 223.171875 C 532.585938 226.5 535.449219 230.144531 538.097656 234.125 C 540.78125 238.148438 543.253906 242.527344 545.367188 247.289062 C 547.476562 252.042969 549.222656 257.222656 550.554688 262.625 C 551.851562 267.921875 552.71875 273.390625 553.101562 278.84375 C 553.484375 284.375 553.367188 289.898438 552.691406 295.554688 C 552.015625 301.179688 550.769531 306.957031 548.894531 313.027344 C 546.921875 319.398438 544.273438 326.046875 540.816406 332.671875 C 537.714844 338.617188 533.9375 344.613281 529.378906 350.453125 C 524.96875 356.105469 519.882812 361.539062 514.511719 366.636719 C 508.25 372.574219 501.605469 378.066406 495.1875 382.925781 C 489.296875 387.386719 483.507812 391.367188 478.132812 394.695312 Z M 614.25 340.714844 C 614.25 340.898438 614.242188 341.085938 614.234375 341.269531 C 614.054688 345.804688 613.488281 350.292969 612.515625 354.664062 C 611.925781 357.292969 611.199219 359.867188 610.324219 362.371094 C 610.164062 363.859375 609.976562 365.320312 609.753906 366.730469 C 608.964844 371.773438 607.761719 376.121094 605.914062 380.175781 C 604.050781 384.273438 601.570312 388 598.230469 391.757812 C 597.664062 392.394531 597.066406 393.03125 596.453125 393.671875 C 597.359375 393.863281 598.332031 394.054688 599.324219 394.25 C 601.589844 394.691406 603.941406 395.144531 606.28125 395.425781 C 608.511719 395.691406 610.761719 395.808594 612.984375 395.613281 C 615.230469 395.417969 617.429688 394.921875 619.464844 394.117188 C 621.386719 393.351562 623.183594 392.316406 624.746094 391.007812 C 626.363281 389.644531 627.738281 387.96875 628.722656 385.96875 C 629.628906 384.132812 630.210938 382.011719 630.355469 379.601562 C 630.507812 377.023438 630.160156 374.085938 629.441406 370.96875 C 628.628906 367.449219 627.34375 363.742188 625.746094 360.085938 C 624.257812 356.664062 622.5 353.300781 620.679688 350.199219 C 618.675781 346.804688 616.574219 343.703125 614.609375 341.171875 C 614.488281 341.015625 614.371094 340.863281 614.25 340.714844 Z M 415.417969 401.007812 C 415.753906 400.992188 416.09375 400.976562 416.425781 400.957031 C 412.617188 399.765625 405.03125 399.378906 396.867188 398.964844 C 393.246094 398.78125 389.515625 398.59375 386.253906 398.355469 C 380.226562 397.914062 374.453125 397.242188 369.015625 396.363281 C 363.53125 395.480469 358.453125 394.390625 353.878906 393.117188 C 348.980469 391.757812 344.695312 390.199219 340.960938 388.777344 C 343.9375 390.042969 347.261719 391.378906 350.902344 392.65625 C 355.28125 394.195312 360.144531 395.667969 365.4375 396.882812 C 370.511719 398.042969 376.027344 398.964844 381.6875 399.65625 C 387.824219 400.402344 393.953125 400.871094 399.742188 401.070312 C 405.253906 401.261719 410.546875 401.226562 415.417969 401.007812 Z M 319.503906 376.253906 C 320.488281 375.089844 321.882812 373.910156 323.769531 372.679688 C 326.652344 370.796875 330.832031 368.628906 336.164062 365.867188 C 341.363281 363.167969 347.6875 359.882812 354.777344 355.851562 C 361.914062 351.796875 369.890625 346.953125 377.984375 341.355469 C 386.074219 335.761719 394.285156 329.429688 401.863281 322.421875 C 408.710938 316.089844 415.15625 309.089844 421.078125 301.957031 C 428.183594 293.382812 434.449219 284.703125 439.6875 276.789062 C 444.476562 269.546875 448.40625 262.960938 451.519531 256.828125 C 454.589844 250.785156 456.878906 245.160156 458.425781 239.757812 C 459.949219 234.40625 460.75 229.289062 461.015625 224.464844 C 461.289062 219.617188 461.023438 215.046875 460.433594 210.816406 C 459.265625 202.449219 456.8125 195.382812 455.417969 191.351562 L 455.324219 191.074219 C 454.605469 191.023438 453.894531 190.976562 453.203125 190.933594 C 448.046875 190.597656 443.089844 190.332031 438.96875 190.222656 C 435.054688 190.117188 431.730469 190.144531 429.429688 190.363281 C 429.898438 192.734375 429.457031 195.410156 428.285156 198.40625 C 426.789062 202.199219 423.976562 206.710938 420.335938 212.007812 C 416.777344 217.199219 412.417969 223.152344 406.539062 230.078125 C 400.621094 237.054688 393.105469 245.113281 383.207031 254.53125 C 373.539062 263.726562 361.640625 274.191406 349.183594 284.585938 C 336.140625 295.472656 322.496094 306.289062 310.167969 315.507812 C 299.878906 323.199219 290.355469 329.882812 281.949219 335.519531 C 270.84375 342.96875 261.886719 348.453125 255.703125 352.027344 C 253.632812 353.222656 251.628906 354.339844 249.957031 355.273438 C 248.300781 356.191406 247.132812 356.84375 246.320312 357.308594 C 246.160156 357.519531 246.019531 357.710938 245.890625 357.886719 C 245.460938 358.472656 245.105469 358.953125 244.730469 359.363281 C 244.953125 360.5 245.582031 361.992188 246.886719 363.648438 C 248.308594 365.449219 250.476562 367.339844 253.6875 369.0625 C 257.636719 371.183594 263.0625 373.027344 268.992188 374.472656 C 275.523438 376.066406 282.632812 377.164062 289.089844 377.617188 L 289.105469 377.617188 C 299.371094 378.339844 307.992188 377.425781 314.445312 376.746094 C 315.675781 376.613281 316.835938 376.492188 318.367188 376.351562 C 318.753906 376.316406 319.128906 376.285156 319.503906 376.253906 Z M 417.921875 190.347656 C 418.027344 190.148438 418.121094 189.960938 418.214844 189.78125 C 414.589844 188.515625 408.804688 187.910156 404.484375 187.457031 L 403.230469 187.324219 L 403.210938 187.324219 L 402.589844 187.257812 C 397.375 186.691406 395.125 186.449219 383.628906 192.035156 C 376.429688 195.53125 365.929688 201.148438 354.492188 207.988281 C 345.519531 213.355469 335.988281 219.464844 327.0625 225.875 C 317.429688 232.785156 308.46875 240.054688 300.363281 247.292969 C 291.292969 255.382812 283.292969 263.433594 276.621094 270.886719 C 270.359375 277.878906 265.285156 284.339844 261.144531 290.703125 C 257.070312 296.96875 253.90625 303.164062 251.398438 309.726562 C 249.175781 315.550781 247.476562 321.671875 246.222656 327.425781 C 244.640625 334.710938 243.78125 341.351562 243.488281 346.09375 C 243.441406 346.847656 243.40625 347.546875 243.386719 348.199219 C 244.917969 346.625 246.9375 344.761719 249.644531 342.59375 C 254.746094 338.511719 262.007812 333.570312 270.296875 327.925781 C 277.0625 323.320312 284.507812 318.25 291.601562 313.128906 C 299.628906 307.324219 307.671875 301.128906 316.203125 294.066406 C 324.695312 287.035156 333.558594 279.238281 343.246094 270.226562 C 352.691406 261.429688 362.914062 251.5 372.445312 241.953125 C 382.746094 231.628906 392.210938 221.800781 399.058594 214.316406 C 405.632812 207.132812 409.921875 201.976562 412.835938 198.125 C 415.597656 194.453125 416.992188 192.121094 417.921875 190.347656 Z M 398.585938 226.800781 C 392.59375 233.140625 385.585938 240.34375 378.234375 247.714844 C 376.667969 249.28125 375.085938 250.863281 373.496094 252.441406 C 374.890625 251.140625 376.25 249.863281 377.574219 248.613281 C 386.292969 240.316406 393.105469 233.117188 398.585938 226.800781 Z M 398.585938 226.800781 " fill-opacity="1" fill-rule="nonzero"/></g></svg>