<svg xmlns="http://www.w3.org/2000/svg" xmlns:xlink="http://www.w3.org/1999/xlink" width="1080" zoomAndPan="magnify" viewBox="0 0 810 809.999993" height="1080" preserveAspectRatio="xMidYMid meet" version="1.0"><defs><clipPath id="6793da3e5b"><path d="M 269 619 L 518 619 L 518 700.667969 L 269 700.667969 Z M 269 619 " clip-rule="nonzero"/></clipPath><clipPath id="4cdd212fe0"><path d="M 243.371094 147 L 561 147 L 561 688 L 243.371094 688 Z M 243.371094 147 " clip-rule="nonzero"/></clipPath></defs><path fill="#ffffff" d="M 486.628906 383.511719 C 454.886719 376.136719 416.160156 352.160156 398.1875 308.683594 C 380.214844 265.207031 382.996094 202.226562 402.492188 175.75 C 421.988281 149.277344 458.195312 159.304688 487.890625 178.675781 C 517.585938 198.046875 540.769531 226.761719 553.019531 260.617188 C 565.269531 294.46875 566.585938 333.457031 554.863281 357.5625 C 543.140625 381.667969 518.375 390.886719 486.628906 383.511719 Z M 486.628906 383.511719 " fill-opacity="1" fill-rule="evenodd"/><g clip-path="url(#6793da3e5b)"><path fill="#333333" d="M 288.25 660.246094 C 304.039062 651.949219 332.8125 639.867188 360.019531 631.507812 C 387.222656 623.152344 412.863281 618.519531 435.445312 619.5 C 458.023438 620.476562 477.542969 627.066406 492.609375 636.949219 C 507.675781 646.828125 518.289062 660.003906 517.496094 670.011719 C 516.703125 680.015625 504.503906 686.84375 486.875 692.03125 C 469.246094 697.214844 446.191406 700.753906 410.015625 700.144531 C 373.84375 699.535156 324.554688 694.773438 298.507812 690.324219 C 272.460938 685.871094 269.65625 681.722656 269.65625 677.390625 C 269.65625 673.058594 272.460938 668.546875 288.25 660.246094 Z M 288.25 660.246094 " fill-opacity="1" fill-rule="evenodd"/></g><g clip-path="url(#4cdd212fe0)"><path fill="#000000" d="M 243.820312 669.875 C 276.253906 671.878906 308.691406 673.882812 337.117188 675.621094 C 365.648438 677.363281 390.089844 678.832031 406.339844 679.753906 C 418.757812 680.460938 426.480469 680.851562 431.824219 680.902344 C 430.238281 680.488281 428.328125 679.566406 426.058594 678.113281 C 423.238281 676.308594 419.347656 673.539062 414.890625 670.367188 C 407.878906 665.375 399.453125 659.375 391.769531 654.707031 C 378.832031 646.839844 366.132812 642.410156 353.039062 640.886719 C 339.886719 639.355469 326.289062 640.75 311.617188 644.542969 C 303.871094 646.546875 296.144531 649.289062 289.132812 652.085938 C 282.238281 654.832031 275.777344 657.757812 270.757812 660.03125 L 270.40625 660.191406 C 261.710938 664.132812 256.804688 666.355469 254.632812 664.242188 C 252.785156 662.441406 253.011719 660.441406 255.316406 658.078125 C 262.554688 650.644531 275.09375 643.367188 288.902344 637 C 293.769531 634.757812 298.804688 632.621094 303.828125 630.625 C 302.746094 628.660156 301.539062 625.941406 300.0625 622.164062 C 297.832031 616.457031 294.820312 607.941406 291.546875 598.074219 C 288.46875 588.792969 285.222656 578.492188 282.246094 568.429688 C 269.148438 524.144531 257.613281 470.253906 257.871094 417.898438 C 258.128906 365.167969 270.339844 314.019531 304.875 275.714844 C 311.210938 268.6875 317.863281 262.601562 324.082031 257.492188 C 330.242188 252.429688 335.976562 248.332031 340.53125 245.238281 C 345.183594 242.074219 348.597656 239.949219 351.078125 238.628906 C 354.070312 237.042969 356.1875 236.382812 357.746094 236.382812 L 357.746094 236.398438 C 362.546875 236.398438 362.757812 238.628906 363.335938 244.855469 C 363.40625 245.601562 363.488281 246.46875 363.667969 248.070312 C 365.394531 263.539062 370.335938 286.679688 376.40625 309.375 C 380.261719 323.789062 384.558594 337.988281 388.761719 349.886719 C 388.835938 348.128906 388.972656 346.261719 389.191406 344.3125 C 389.648438 340.164062 390.472656 335.640625 391.859375 331.023438 C 397.917969 310.839844 413.734375 294.9375 433.210938 283.476562 C 456.609375 269.710938 485.417969 262.332031 508.71875 261.703125 C 517.46875 261.464844 524.253906 262.019531 528.964844 262.40625 C 529.648438 262.460938 530.285156 262.515625 530.871094 262.558594 C 530.195312 261.613281 529.359375 260.46875 528.371094 259.113281 C 525.566406 255.28125 521.574219 249.847656 516.5625 243.398438 C 511.613281 237.027344 505.851562 229.917969 499.695312 222.957031 C 487.101562 208.726562 458.980469 182.285156 431.675781 166.539062 C 414.304688 156.515625 397.460938 150.882812 385.824219 155.875 C 376.496094 159.882812 371.304688 167.851562 368.289062 177.085938 C 365.117188 186.796875 364.289062 198.003906 363.679688 207.683594 C 362.96875 219.019531 363.039062 227.277344 363.105469 235.535156 L 363.109375 235.546875 L 363.105469 235.546875 L 363.105469 235.5625 L 361.238281 235.578125 L 356.105469 235.65625 L 356.105469 235.617188 C 356.035156 227.136719 355.964844 218.652344 356.679688 207.242188 C 357.316406 197.144531 358.183594 185.429688 361.617188 174.917969 C 365.207031 163.933594 371.527344 154.382812 383.082031 149.425781 C 397.082031 143.414062 416.039062 149.441406 435.164062 160.46875 C 463.210938 176.648438 492.039062 203.742188 504.9375 218.316406 C 511.386719 225.601562 517.199219 232.773438 522.105469 239.085938 C 526.949219 245.316406 531.09375 250.964844 534.023438 254.96875 C 537.085938 259.152344 538.867188 261.617188 539.5 263.425781 C 541.261719 268.449219 539.34375 269.742188 533.96875 269.734375 C 532.425781 269.734375 530.65625 269.589844 528.417969 269.40625 C 523.777344 269.027344 517.09375 268.480469 508.882812 268.703125 C 486.640625 269.300781 459.121094 276.355469 436.753906 289.515625 C 418.695312 300.140625 404.078125 314.722656 398.585938 333.027344 C 397.328125 337.21875 396.578125 341.320312 396.164062 345.082031 C 395.785156 348.46875 395.675781 351.578125 395.699219 354.21875 C 399.753906 346.800781 403.738281 340.046875 407.890625 333.878906 C 406.613281 332.570312 405.824219 331.171875 405.671875 329.304688 C 405.480469 326.855469 406.625 324.273438 409.609375 320.785156 C 417.398438 311.664062 428.261719 303.453125 440.09375 296.625 C 453.601562 288.824219 468.449219 282.78125 481.410156 279.230469 C 491.6875 276.417969 507.742188 273.089844 522.375 273.445312 C 532.925781 273.699219 542.816406 275.875 549.605469 281.480469 C 556.824219 287.4375 559.898438 294.488281 560.214844 301.878906 C 560.578125 310.476562 557.101562 319.351562 552.113281 327.351562 C 540.554688 345.886719 514.660156 365.59375 486.527344 378.589844 C 460.8125 390.472656 433.035156 396.832031 412.292969 391.730469 C 406.226562 390.238281 401.714844 387.695312 398.003906 383.941406 C 394.425781 380.324219 391.683594 375.640625 389.023438 369.707031 C 382.765625 355.753906 375.640625 333.679688 369.625 311.183594 C 363.480469 288.199219 358.464844 264.675781 356.695312 248.839844 C 356.59375 247.9375 356.46875 246.621094 356.363281 245.484375 C 356.222656 243.949219 359.320312 243.398438 357.746094 243.398438 L 357.746094 243.410156 C 357.300781 243.410156 356.265625 243.828125 354.371094 244.835938 C 351.964844 246.113281 348.753906 248.105469 344.457031 251.027344 C 340.0625 254.015625 334.519531 257.976562 328.527344 262.902344 C 322.589844 267.78125 316.210938 273.617188 310.089844 280.410156 C 276.867188 317.257812 265.121094 366.769531 264.871094 417.925781 C 264.617188 469.453125 276.023438 522.671875 288.96875 566.453125 C 292 576.695312 295.210938 586.890625 298.191406 595.878906 C 301.355469 605.425781 304.328125 613.816406 306.59375 619.613281 C 308.285156 623.9375 309.480469 626.574219 310.433594 628.078125 C 322.34375 623.621094 333.699219 620.070312 341.976562 617.929688 C 375.15625 609.339844 400.96875 607.460938 424.5 613.597656 C 448.066406 619.742188 469.089844 633.84375 492.679688 657.214844 C 504.605469 669.03125 504.605469 669.03125 489.347656 673.585938 C 484.550781 675.015625 477.355469 677.164062 470.113281 679.332031 C 463.628906 681.273438 456.652344 683.363281 450.628906 685.183594 L 450.453125 685.238281 C 440.140625 688.355469 439.191406 688.640625 405.957031 686.753906 C 389.414062 685.816406 365.023438 684.347656 336.703125 682.621094 C 308.277344 680.882812 275.84375 678.878906 243.40625 676.875 Z M 435.167969 680.886719 C 441.039062 680.742188 443.585938 679.972656 448.421875 678.511719 L 448.59375 678.460938 C 452.523438 677.273438 460.113281 675 468.109375 672.605469 C 475.351562 670.441406 482.546875 668.292969 487.34375 666.859375 C 491.277344 665.6875 491.277344 665.6875 487.738281 662.183594 C 465.046875 639.699219 444.988281 626.175781 422.746094 620.375 C 402.054688 614.980469 379.246094 616.199219 350.460938 623.039062 C 362.492188 623.636719 374.34375 626.492188 385.464844 631.183594 C 404.671875 639.285156 421.726562 652.878906 433.8125 669.804688 C 436.933594 674.171875 438.105469 677.441406 436.808594 679.472656 C 436.382812 680.140625 435.839844 680.613281 435.167969 680.886719 Z M 309.308594 636.003906 C 303.457031 638.269531 297.53125 640.746094 291.839844 643.371094 C 291.207031 643.664062 290.574219 643.957031 289.949219 644.25 C 296.277344 641.828125 303.058594 639.523438 309.863281 637.761719 C 325.382812 633.75 339.808594 632.28125 353.832031 633.914062 C 367.914062 635.550781 381.539062 640.300781 395.394531 648.722656 C 403.441406 653.613281 411.90625 659.640625 418.953125 664.65625 C 420.542969 665.785156 422.054688 666.867188 423.472656 667.867188 C 412.589844 654.777344 398.433594 644.25 382.75 637.632812 C 365.671875 630.429688 346.796875 627.871094 328.390625 631.695312 C 323.59375 632.691406 320.152344 633.8125 317.570312 634.652344 C 315.664062 635.273438 314.171875 635.757812 312.789062 636.003906 C 311.523438 636.226562 310.398438 636.296875 309.308594 636.003906 Z M 430.636719 675.300781 C 430.59375 675.933594 430.5625 676.253906 430.90625 675.714844 C 431.085938 675.4375 430.949219 675.363281 430.636719 675.300781 Z M 395.683594 367.433594 C 397.914062 372.316406 400.171875 376.144531 403 379 C 405.800781 381.835938 409.257812 383.765625 413.96875 384.921875 C 433.050781 389.617188 459.164062 383.507812 483.589844 372.222656 C 510.585938 359.75 535.296875 341.058594 546.15625 323.644531 C 550.488281 316.703125 553.511719 309.160156 553.214844 302.152344 C 552.980469 296.683594 550.644531 291.417969 545.160156 286.886719 C 539.738281 282.414062 531.339844 280.667969 522.210938 280.445312 C 512.105469 280.199219 501.203125 281.835938 492.230469 283.785156 C 493.738281 285.179688 494.046875 287.035156 494.300781 289.484375 C 495.199219 298.046875 494.28125 306.144531 491.890625 313.421875 C 488.824219 322.777344 483.347656 330.78125 476.1875 336.703125 C 469.011719 342.640625 460.152344 346.488281 450.335938 347.515625 C 443.125 348.273438 435.417969 347.5 427.511719 344.90625 C 424.300781 343.855469 421.214844 342.484375 418.445312 341.035156 C 416.628906 340.082031 414.953125 339.097656 413.472656 338.144531 C 408.457031 345.632812 403.664062 354.050781 398.652344 363.539062 C 397.648438 365.445312 396.660156 366.734375 395.683594 367.433594 Z M 417.503906 332.410156 C 418.761719 333.210938 420.167969 334.035156 421.683594 334.828125 C 424.101562 336.097656 426.816406 337.296875 429.679688 338.238281 C 436.628906 340.515625 443.363281 341.199219 449.621094 340.546875 C 458.003906 339.667969 465.574219 336.375 471.714844 331.296875 C 477.867188 326.203125 482.578125 319.3125 485.222656 311.253906 C 487.316406 304.867188 488.121094 297.746094 487.332031 290.195312 C 487.242188 289.347656 487.964844 289.253906 487.585938 289.023438 C 487.464844 288.949219 486.484375 289.171875 484.148438 289.816406 C 460.410156 296.347656 444.300781 304.808594 431.558594 316.546875 C 426.445312 321.253906 421.851562 326.515625 417.503906 332.410156 Z M 417.503906 332.410156 " fill-opacity="1" fill-rule="nonzero"/></g></svg>