<svg xmlns="http://www.w3.org/2000/svg" xmlns:xlink="http://www.w3.org/1999/xlink" width="1080" zoomAndPan="magnify" viewBox="0 0 810 809.999993" height="1080" preserveAspectRatio="xMidYMid meet" version="1.0"><defs><clipPath id="243c5bc840"><path d="M 256.050781 147.078125 L 550 147.078125 L 550 647 L 256.050781 647 Z M 256.050781 147.078125 " clip-rule="nonzero"/></clipPath></defs><path fill="#f5f1e8" d="M 414.054688 469.75 C 419.007812 480.738281 426.605469 501.570312 434.605469 518.078125 C 442.605469 534.585938 451.003906 546.765625 469.070312 555.484375 C 487.132812 564.199219 514.855469 569.453125 531.554688 579.953125 C 548.253906 590.457031 553.925781 606.210938 542.625 620.910156 C 531.320312 635.613281 503.046875 649.265625 462.863281 656.089844 C 422.679688 662.917969 370.59375 662.917969 336.523438 660.082031 C 302.460938 657.246094 286.410156 651.578125 277.867188 637.714844 C 269.320312 623.851562 268.269531 601.796875 282.445312 587.410156 C 296.625 573.023438 326.03125 566.300781 344.304688 557.269531 C 362.578125 548.238281 369.71875 536.894531 374.773438 520.554688 C 379.828125 504.214844 382.792969 482.878906 387.394531 471.363281 C 391.996094 459.847656 398.226562 458.160156 402.503906 457.886719 C 406.777344 457.613281 409.097656 458.761719 414.054688 469.75 Z M 414.054688 469.75 " fill-opacity="1" fill-rule="evenodd"/><g clip-path="url(#243c5bc840)"><path fill="#000000" d="M 408.917969 144.671875 C 408.914062 195.957031 408.914062 247.246094 408.949219 292.132812 C 408.984375 337.007812 409.058594 375.488281 409.210938 401.171875 C 409.386719 431.929688 408.886719 444.3125 408.6875 449.363281 C 408.679688 449.441406 408.214844 449.402344 407.621094 449.320312 L 406.898438 449.292969 C 420.042969 452.5 425.265625 465.328125 429.570312 475.925781 L 429.613281 476.035156 C 430.683594 478.671875 431.65625 480.3125 432.242188 481.265625 C 435.914062 483.253906 437.21875 483.980469 439.511719 491.152344 C 441.476562 497.300781 442.601562 502.664062 443.632812 507.585938 C 446.089844 519.339844 447.992188 528.40625 460.1875 537.609375 C 462.261719 539.175781 463.628906 540.605469 463.753906 541.992188 C 476.632812 544.304688 490.730469 550.902344 503.546875 559.609375 C 520.875 571.375 536.042969 587.09375 542.796875 601.300781 C 544.964844 605.859375 546.867188 610.53125 548.058594 614.808594 C 549.148438 618.703125 549.640625 622.324219 549.242188 625.34375 C 548.695312 629.445312 546.878906 632.355469 541.285156 634.632812 C 536.992188 636.382812 529.992188 637.761719 518.390625 639.226562 C 483.792969 643.597656 429.066406 647.207031 377.285156 646.765625 C 337.457031 646.425781 299.320312 643.691406 273.257812 637.074219 C 269.1875 636.039062 265.84375 634.921875 263.3125 633.710938 C 260.191406 632.214844 258.128906 630.433594 257.230469 628.332031 C 256.058594 625.582031 256.527344 622.914062 259.730469 620.34375 C 259.808594 619.148438 260.082031 617.820312 260.539062 616.328125 C 266.285156 597.507812 277.140625 583.183594 290.851562 571.820312 C 304.386719 560.605469 320.664062 552.320312 337.519531 545.4375 C 341.507812 543.8125 345.214844 542.441406 348.785156 541.277344 C 348.96875 540.988281 349.171875 540.695312 349.398438 540.40625 C 350.296875 539.226562 351.476562 538.277344 352.644531 537.34375 C 352.953125 537.089844 352.894531 537.140625 353.089844 536.980469 C 358.9375 532.230469 361.0625 521.046875 363.101562 510.304688 C 364.515625 502.878906 365.894531 495.644531 368.527344 490.082031 C 369.695312 487.628906 371.0625 485.855469 372.800781 484.4375 C 374.269531 483.238281 375.90625 482.378906 377.859375 481.628906 C 377.839844 480.964844 377.890625 480.25 378.011719 479.5 C 378.28125 477.746094 378.867188 475.589844 379.726562 473.285156 C 383.117188 464.136719 391.125 451.25 401.167969 448.703125 C 401.375 443.445312 401.847656 430.96875 401.679688 401.203125 C 401.527344 375.519531 401.453125 337.027344 401.414062 292.132812 C 401.382812 247.246094 401.382812 195.957031 401.382812 144.671875 Z M 407.621094 449.320312 C 406.199219 449.128906 404.054688 448.695312 405.96875 449.082031 C 406.28125 449.148438 406.589844 449.21875 406.898438 449.292969 Z M 404.464844 456.46875 C 403.769531 456.328125 403.21875 456.210938 402.769531 456.066406 C 395.730469 457.9375 389.59375 468.421875 386.816406 475.914062 C 386.582031 476.535156 386.378906 477.128906 386.203125 477.6875 C 391.515625 475.695312 397.136719 474.109375 403.46875 473.796875 C 409.015625 473.523438 415.007812 474.238281 421.660156 476.53125 C 418.089844 467.882812 413.53125 458.316406 404.464844 456.46875 Z M 429.378906 488.3125 C 428.789062 488.242188 428.132812 488.019531 427.332031 487.746094 C 426.191406 487.363281 424 486.621094 420.367188 486.058594 C 413.960938 485.066406 406.4375 484.75 399.171875 485.203125 C 392.535156 485.613281 386.179688 486.667969 381.210938 488.433594 C 379.65625 488.988281 378.460938 489.550781 377.550781 490.285156 C 376.707031 490.972656 376.007812 491.917969 375.351562 493.300781 C 373.121094 498.007812 371.835938 504.761719 370.519531 511.691406 C 368.730469 521.097656 366.882812 530.804688 362.378906 537.703125 C 366.554688 536.871094 370.804688 536.261719 375.378906 535.792969 C 381.804688 535.132812 388.917969 534.761719 396.265625 534.65625 C 403.796875 534.550781 411.496094 534.730469 418.875 535.179688 C 428.933594 535.789062 438.382812 536.875 445.53125 537.695312 C 446.871094 537.847656 448.140625 537.992188 449.285156 538.121094 C 440.445312 529.15625 438.566406 520.191406 436.25 509.121094 C 435.246094 504.328125 434.148438 499.105469 432.335938 493.429688 C 431.1875 489.84375 430.578125 489.035156 429.378906 488.3125 Z M 350.640625 549.183594 C 350.460938 549.050781 350.296875 548.917969 350.140625 548.785156 C 347.046875 549.820312 343.816406 551.027344 340.355469 552.4375 C 324.128906 559.0625 308.507812 566.996094 295.667969 577.636719 C 283.644531 587.601562 274.015625 599.980469 268.570312 615.953125 C 269.832031 615.5 271.222656 615.042969 272.753906 614.578125 C 292.730469 608.492188 317.230469 604.558594 342.289062 602.277344 C 372.542969 599.523438 403.644531 599.171875 428.578125 600.347656 C 445.6875 601.15625 462.601562 602.800781 477.652344 604.648438 C 492.664062 606.492188 506.003906 608.566406 515.851562 610.222656 C 525.683594 611.875 532.003906 613.117188 535.953125 614.097656 C 537.792969 614.554688 539.253906 615.035156 540.421875 615.542969 C 539.351562 612.085938 537.769531 608.289062 535.972656 604.519531 C 529.785156 591.492188 515.605469 576.898438 499.324219 565.84375 C 484.269531 555.621094 467.566406 548.515625 453.9375 548.628906 C 446.304688 548.691406 435.027344 550.085938 423.46875 551.511719 C 420.921875 551.828125 418.363281 552.144531 415.207031 552.519531 C 408.03125 553.375 401 554.128906 394.308594 554.605469 C 387.613281 555.082031 381.28125 555.277344 375.511719 555.007812 C 370.015625 554.75 365.070312 554.066406 361.042969 553.171875 C 356.226562 552.101562 352.554688 550.65625 350.640625 549.183594 Z M 361.628906 545.578125 C 361.960938 545.660156 362.308594 545.738281 362.667969 545.820312 C 366.285156 546.621094 370.785156 547.238281 375.835938 547.472656 C 381.230469 547.726562 387.292969 547.535156 393.777344 547.074219 C 400.261719 546.609375 407.199219 545.867188 414.320312 545.019531 C 416.640625 544.742188 419.613281 544.375 422.554688 544.011719 C 424.226562 543.804688 425.894531 543.597656 427.546875 543.398438 C 424.585938 543.136719 421.523438 542.898438 418.433594 542.710938 C 411.117188 542.269531 403.601562 542.089844 396.355469 542.191406 C 389.296875 542.289062 382.421875 542.652344 376.140625 543.296875 C 371.015625 543.820312 366.316406 544.539062 361.628906 545.578125 Z M 541.769531 624.371094 C 541.777344 624.296875 541.78125 624.226562 541.792969 624.152344 C 541.675781 624.207031 541.550781 624.261719 541.421875 624.316406 C 540.621094 624.644531 539.546875 624.898438 538.171875 625.058594 C 535.367188 625.382812 530.640625 625.410156 523.476562 624.945312 C 518.839844 624.644531 512.652344 624.082031 505.328125 623.421875 C 493.550781 622.355469 478.757812 621.015625 461.101562 619.988281 C 433.777344 618.394531 406.394531 617.671875 379.109375 618.253906 C 351.828125 618.835938 324.589844 620.722656 297.507812 624.355469 C 291.5 625.160156 286.125 625.984375 281.816406 626.644531 C 276.367188 627.480469 272.640625 628.050781 269.742188 628.191406 C 271.28125 628.714844 273.0625 629.234375 275.09375 629.75 C 300.582031 636.222656 338.097656 638.898438 377.34375 639.234375 C 428.789062 639.671875 483.117188 636.089844 517.445312 631.753906 C 528.316406 630.382812 534.742188 629.140625 538.449219 627.632812 C 540.851562 626.65625 541.59375 625.664062 541.769531 624.371094 Z M 342.964844 609.777344 C 324.457031 611.464844 306.296875 614.054688 290.152344 617.761719 C 292.070312 617.488281 294.167969 617.195312 296.5 616.882812 C 323.839844 613.214844 351.371094 611.308594 378.957031 610.722656 C 406.539062 610.132812 434.097656 610.859375 461.515625 612.457031 C 476.480469 613.328125 489.65625 614.449219 500.652344 615.433594 C 493.535156 614.355469 485.460938 613.222656 476.742188 612.152344 C 461.710938 610.304688 444.945312 608.671875 428.226562 607.878906 C 403.5625 606.714844 372.824219 607.0625 342.964844 609.777344 Z M 342.964844 609.777344 " fill-opacity="1" fill-rule="nonzero"/></g></svg>